<svg width="291" height="135" viewBox="0 0 291 135" fill="none" xmlns="http://www.w3.org/2000/svg">
<rect width="291" height="135" rx="3" fill="white"/>
<rect x="49.7969" y="73.3096" width="1.63147" height="37.6403" fill="#4A3645"/>
<rect x="242.311" y="83.4482" width="1.63147" height="27.5019" fill="#4A3645"/>
<rect x="242.311" y="69.8135" width="1.63147" height="8.97309" fill="#4A3645"/>
<rect x="54.9243" y="64.4531" width="1.63147" height="8.97309" fill="#4A3645"/>
<rect x="47.2913" y="56.4705" width="0.582668" height="16.6643" stroke="#4A3645" stroke-width="0.582668"/>
<path d="M47.583 73.4262V57.0532" stroke="#4A3645" stroke-width="0.7"/>
<path d="M47.7819 39.7478V55.9121H47.5V38.7329H50.87V39.2478H48.2819H47.7819V39.7478Z" stroke="#4A3645"/>
<path d="M47.6992 56.4123L47.6992 39.0488" stroke="#4A3645" stroke-width="0.7"/>
<path d="M47.5824 39.0488L51.3115 39.0488" stroke="#4A3645" stroke-width="0.7"/>
<rect x="59.6439" y="105.997" width="0.815735" height="4.19521" transform="rotate(90 59.6439 105.997)" stroke="#4A3645" stroke-width="0.815735"/>
<path d="M55.0411 106.405L59.9355 106.405" stroke="#4A3645" stroke-width="0.7"/>
<rect x="81.2025" y="111.125" width="0.815735" height="8.15735" transform="rotate(90 81.2025 111.125)" stroke="#4A3645" stroke-width="0.815735"/>
<path d="M72.6379 111.533L81.4023 111.533" stroke="#4A3645" stroke-width="0.7"/>
<rect x="98.7997" y="111.125" width="0.815735" height="8.15735" transform="rotate(90 98.7997 111.125)" stroke="#4A3645" stroke-width="0.815735"/>
<path d="M90.2341 111.533L98.9985 111.533" stroke="#4A3645" stroke-width="0.7"/>
<rect x="117.095" y="105.881" width="0.815735" height="5.12748" transform="rotate(90 117.095 105.881)" stroke="#4A3645" stroke-width="0.815735"/>
<path d="M111.56 106.289L117.365 106.289" stroke="#4A3645" stroke-width="0.7"/>
<rect x="129.564" y="105.881" width="0.815735" height="5.12748" transform="rotate(90 129.564 105.881)" stroke="#4A3645" stroke-width="0.815735"/>
<path d="M124.029 106.289L129.834 106.289" stroke="#4A3645" stroke-width="0.7"/>
<rect x="164.874" y="105.881" width="0.815735" height="5.12748" transform="rotate(90 164.874 105.881)" stroke="#4A3645" stroke-width="0.815735"/>
<path d="M159.339 106.289L165.144 106.289" stroke="#4A3645" stroke-width="0.7"/>
<rect x="66.5776" y="105.589" width="1.63147" height="9.67229" fill="#4A3645"/>
<rect x="102.819" y="105.589" width="1.63147" height="6.75895" fill="#4A3645"/>
<rect x="97.3428" y="74.3584" width="1.63147" height="12.1195" fill="#4A3645"/>
<rect x="136.964" y="105.589" width="1.63147" height="6.75895" fill="#4A3645"/>
<rect x="155.26" y="105.589" width="1.63147" height="6.75895" fill="#4A3645"/>
<rect x="189.288" y="105.589" width="1.63147" height="6.75895" fill="#4A3645"/>
<rect x="207.467" y="105.589" width="1.63147" height="6.75895" fill="#4A3645"/>
<rect x="54.9243" y="51.4014" width="1.63147" height="8.97309" fill="#4A3645"/>
<rect x="54.9243" y="31.4741" width="1.63147" height="10.6046" fill="#4A3645"/>
<rect x="242.311" y="56.2959" width="1.63147" height="8.97309" fill="#4A3645"/>
<rect x="90.1172" y="22.7344" width="1.63147" height="26.6862" transform="rotate(90 90.1172 22.7344)" fill="#4A3645"/>
<rect x="107.481" y="22.7344" width="1.63147" height="8.50695" transform="rotate(90 107.481 22.7344)" fill="#4A3645"/>
<rect x="56.2061" y="38.2329" width="1.51494" height="4.89441" transform="rotate(90 56.2061 38.2329)" fill="#4A3645"/>
<rect x="122.164" y="22.7344" width="1.63147" height="5.82668" transform="rotate(90 122.164 22.7344)" fill="#4A3645"/>
<rect x="147.335" y="27.5122" width="1.63147" height="5.82668" transform="rotate(90 147.335 27.5122)" fill="#4A3645"/>
<rect x="159.455" y="27.5122" width="1.63147" height="7.57468" transform="rotate(90 159.455 27.5122)" fill="#4A3645"/>
<rect x="194.765" y="22.7344" width="1.63147" height="5.71014" transform="rotate(90 194.765 22.7344)" fill="#4A3645"/>
<rect x="212.128" y="22.7344" width="1.63147" height="8.62348" transform="rotate(90 212.128 22.7344)" fill="#4A3645"/>
<rect x="227.161" y="22.7344" width="1.63147" height="6.05975" transform="rotate(90 227.161 22.7344)" fill="#4A3645"/>
<rect x="243.942" y="27.978" width="1.63147" height="5.82668" transform="rotate(90 243.942 27.978)" fill="#4A3645"/>
<rect x="229.725" y="27.978" width="1.63147" height="3.96214" transform="rotate(90 229.725 27.978)" fill="#4A3645"/>
<rect x="190.569" y="32.29" width="1.63147" height="3.96214" transform="rotate(90 190.569 32.29)" fill="#4A3645"/>
<rect x="177.401" y="32.29" width="1.63147" height="7.69122" transform="rotate(90 177.401 32.29)" fill="#4A3645"/>
<rect x="142.558" y="32.1733" width="1.63147" height="8.27388" transform="rotate(90 142.558 32.1733)" fill="#4A3645"/>
<rect x="124.961" y="32.1733" width="1.63147" height="3.14641" transform="rotate(90 124.961 32.1733)" fill="#4A3645"/>
<rect x="124.262" y="105.473" width="1.63147" height="3.14641" transform="rotate(90 124.262 105.473)" fill="#4A3645"/>
<rect x="136.964" y="105.473" width="1.63147" height="3.14641" transform="rotate(90 136.964 105.473)" fill="#4A3645"/>
<rect x="120.3" y="105.473" width="1.63147" height="3.14641" transform="rotate(90 120.3 105.473)" fill="#4A3645"/>
<rect x="107.481" y="105.473" width="1.63147" height="3.72907" transform="rotate(90 107.481 105.473)" fill="#4A3645"/>
<rect x="159.805" y="105.473" width="1.63147" height="3.72907" transform="rotate(90 159.805 105.473)" fill="#4A3645"/>
<rect x="142.441" y="110.717" width="1.63147" height="3.84561" transform="rotate(90 142.441 110.717)" fill="#4A3645"/>
<rect x="155.26" y="110.717" width="1.63147" height="3.84561" transform="rotate(90 155.26 110.717)" fill="#4A3645"/>
<rect x="177.052" y="105.473" width="1.63147" height="7.69122" transform="rotate(90 177.052 105.473)" fill="#4A3645"/>
<rect x="194.765" y="110.717" width="1.63147" height="5.82668" transform="rotate(90 194.765 110.717)" fill="#4A3645"/>
<rect x="209.564" y="110.717" width="1.63147" height="5.82668" transform="rotate(90 209.564 110.717)" fill="#4A3645"/>
<rect x="190.919" y="105.473" width="1.63147" height="4.77788" transform="rotate(90 190.919 105.473)" fill="#4A3645"/>
<rect x="212.478" y="105.473" width="1.63147" height="4.77788" transform="rotate(90 212.478 105.473)" fill="#4A3645"/>
<rect x="243.476" y="105.473" width="1.63147" height="4.77788" transform="rotate(90 243.476 105.473)" fill="#4A3645"/>
<rect x="229.841" y="105.473" width="1.63147" height="8.04082" transform="rotate(90 229.841 105.473)" fill="#4A3645"/>
<rect x="102.819" y="110.717" width="1.63147" height="3.72907" transform="rotate(90 102.819 110.717)" fill="#4A3645"/>
<rect x="72.6377" y="110.717" width="1.63147" height="3.72907" transform="rotate(90 72.6377 110.717)" fill="#4A3645"/>
<rect x="55.041" y="105.589" width="1.63147" height="3.72907" transform="rotate(90 55.041 105.589)" fill="#4A3645"/>
<rect x="67.8599" y="105.589" width="1.63147" height="3.72907" transform="rotate(90 67.8599 105.589)" fill="#4A3645"/>
<path d="M60.5186 103.608L64.1311 105.706" stroke="#4A3645"/>
<path d="M107.481 105.589L111.093 103.492" stroke="#4A3645"/>
<path d="M133.934 105.589L130.322 103.492" stroke="#4A3645"/>
<path d="M169.36 105.589L165.748 103.492" stroke="#4A3645"/>
<path d="M186.257 105.589L182.645 103.492" stroke="#4A3645"/>
<path d="M221.8 105.589L218.188 103.492" stroke="#4A3645"/>
<path d="M229.841 105.589L233.454 103.492" stroke="#4A3645"/>
<path d="M214.259 68.0659L216.501 71.5907" stroke="#4A3645"/>
<path d="M214.972 61.6709L211.36 63.7685" stroke="#4A3645"/>
<path d="M188.752 61.6709L185.14 63.7685" stroke="#4A3645"/>
<path d="M176.585 71.4453L180.198 73.5429" stroke="#4A3645"/>
<path d="M134.75 71.4453L131.137 73.5429" stroke="#4A3645"/>
<path d="M108.646 71.4453L105.034 73.5429" stroke="#4A3645"/>
<path d="M107.015 80.0688L110.627 82.1665" stroke="#4A3645"/>
<path d="M81.9604 80.0688L85.573 82.1665" stroke="#4A3645"/>
<path d="M221.684 80.4185L218.072 82.5161" stroke="#4A3645"/>
<path d="M194.648 80.4185L198.261 82.5161" stroke="#4A3645"/>
<path d="M177.518 80.1851L181.13 82.2827" stroke="#4A3645"/>
<path d="M184.743 55.8296L181.13 57.9272" stroke="#4A3645"/>
<path d="M186.84 33.4551L183.228 35.5527" stroke="#4A3645"/>
<path d="M229.608 29.1436L233.221 31.2412" stroke="#4A3645"/>
<path d="M146.181 68.998L143.179 71.9036" stroke="#4A3645"/>
<path d="M164.738 68.998L167.739 71.9036" stroke="#4A3645"/>
<path d="M143.179 63.521L146.18 66.4266" stroke="#4A3645"/>
<path d="M167.739 63.521L164.738 66.4266" stroke="#4A3645"/>
<path d="M89.3091 68.7646L86.3169 71.6796" stroke="#4A3645"/>
<path d="M56.3682 60.3745L59.3604 63.2895" stroke="#4A3645"/>
<path d="M56.6011 42.0786L59.5933 44.9936" stroke="#4A3645"/>
<path d="M87.5991 61.7729L90.5913 64.6879" stroke="#4A3645"/>
<path d="M124.89 33.8047L127.882 36.7197" stroke="#4A3645"/>
<path d="M113.703 61.54L116.695 64.455" stroke="#4A3645"/>
<path d="M193.949 71.4453L197.562 73.5429" stroke="#4A3645"/>
<rect x="90.2339" y="110.717" width="1.63147" height="8.62348" transform="rotate(90 90.2339 110.717)" fill="#4A3645"/>
<rect x="169.827" y="27.5122" width="1.63147" height="5.94321" transform="rotate(90 169.827 27.5122)" fill="#4A3645"/>
<rect x="242.311" y="27.8618" width="1.63147" height="21.2091" fill="#4A3645"/>
<rect x="241.96" y="24.3657" width="1.63147" height="3.72907" fill="#4A3645"/>
<rect x="225.53" y="19.8208" width="1.63147" height="3.72907" fill="#4A3645"/>
<rect x="141.509" y="24.0161" width="1.63147" height="9.78882" fill="#4A3645"/>
<rect x="120.533" y="24.0161" width="1.63147" height="9.78882" fill="#4A3645"/>
<rect x="168.195" y="24.0161" width="1.63147" height="9.78882" fill="#4A3645"/>
<rect x="189.054" y="24.0161" width="1.63147" height="9.78882" fill="#4A3645"/>
<rect x="225.53" y="24.0161" width="1.63147" height="5.59361" fill="#4A3645"/>
<rect x="85.4561" y="82.1665" width="0.932269" height="28.5507" fill="#4A3645"/>
<rect x="85.4561" y="24.249" width="0.932269" height="24.0059" fill="#4A3645"/>
<rect x="77.0659" y="56.063" width="0.466134" height="10.3715" fill="#4A3645"/>
<rect x="77.4155" y="40.6802" width="0.466135" height="21.0926" transform="rotate(90 77.4155 40.6802)" fill="#4A3645"/>
<rect x="86.3887" y="40.6802" width="0.466134" height="4.07868" transform="rotate(90 86.3887 40.6802)" fill="#4A3645"/>
<rect x="113.657" y="47.3228" width="0.466135" height="21.3256" transform="rotate(90 113.657 47.3228)" fill="#4A3645"/>
<rect x="131.72" y="87.0605" width="0.466135" height="22.724" transform="rotate(90 131.72 87.0605)" fill="#4A3645"/>
<rect x="138.363" y="87.0605" width="0.466134" height="1.86454" transform="rotate(90 138.363 87.0605)" fill="#4A3645"/>
<rect x="85.4561" y="82.8652" width="0.466135" height="6.17628" transform="rotate(90 85.4561 82.8652)" fill="#4A3645"/>
<rect x="74.502" y="82.8652" width="0.466135" height="6.17628" transform="rotate(90 74.502 82.8652)" fill="#4A3645"/>
<rect x="79.396" y="65.9683" width="0.466135" height="6.64241" transform="rotate(90 79.396 65.9683)" fill="#4A3645"/>
<rect x="86.3887" y="65.9683" width="0.466134" height="3.26294" transform="rotate(90 86.3887 65.9683)" fill="#4A3645"/>
<rect x="87.5537" y="47.3228" width="0.466134" height="1.51494" transform="rotate(90 87.5537 47.3228)" fill="#4A3645"/>
<rect x="76.3667" y="49.6533" width="0.466134" height="6.52588" fill="#4A3645"/>
<rect x="76.3667" y="40.6802" width="0.466134" height="4.19521" fill="#4A3645"/>
<rect x="92.9146" y="47.3228" width="0.466134" height="4.77788" fill="#4A3645"/>
<rect x="112.492" y="47.3228" width="0.466134" height="4.77788" fill="#4A3645"/>
<rect x="112.492" y="55.8296" width="0.466134" height="5.01094" fill="#4A3645"/>
<rect x="95.478" y="55.8296" width="0.466134" height="5.01094" fill="#4A3645"/>
<rect x="127.758" y="51.2847" width="0.466134" height="9.55575" fill="#4A3645"/>
<rect x="95.8281" y="55.8296" width="0.466134" height="2.91334" transform="rotate(90 95.8281 55.8296)" fill="#4A3645"/>
<rect x="72.7544" y="71.3286" width="0.466134" height="3.02987" fill="#4A3645"/>
<rect x="85.4561" y="53.0327" width="0.932269" height="13.4014" fill="#4A3645"/>
<rect x="102.819" y="95.6841" width="0.932269" height="14.5667" fill="#4A3645"/>
<rect x="102.819" y="82.5156" width="0.932269" height="8.39042" fill="#4A3645"/>
<rect x="102.819" y="74.2422" width="0.932269" height="3.49601" fill="#4A3645"/>
<rect x="85.4561" y="71.6782" width="0.932269" height="6.05975" fill="#4A3645"/>
<rect x="87.5537" y="60.8408" width="0.932269" height="1.51494" transform="rotate(90 87.5537 60.8408)" fill="#4A3645"/>
<rect x="67.8599" y="74.2422" width="0.932269" height="3.49601" fill="#4A3645"/>
<rect x="120.3" y="73.543" width="0.932269" height="41.8355" fill="#4A3645"/>
<rect x="155.143" y="73.543" width="0.932269" height="32.0467" fill="#4A3645"/>
<rect x="137.547" y="82.5156" width="0.932269" height="11.7699" fill="#4A3645"/>
<rect x="156.309" y="105.589" width="0.932269" height="9.67229" fill="#4A3645"/>
<rect x="136.265" y="105.589" width="0.932269" height="9.67229" fill="#4A3645"/>
<rect x="104.218" y="105.589" width="0.932269" height="9.67229" fill="#4A3645"/>
<rect x="172.74" y="82.5156" width="0.932269" height="32.7459" fill="#4A3645"/>
<rect x="189.987" y="71.9111" width="0.932269" height="18.995" fill="#4A3645"/>
<rect x="189.987" y="57.228" width="0.932269" height="6.05975" fill="#4A3645"/>
<rect x="142.208" y="61.1899" width="0.932269" height="2.33067" fill="#4A3645"/>
<rect x="167.729" y="61.1899" width="0.932269" height="2.33067" fill="#4A3645"/>
<rect x="142.208" y="71.9111" width="0.932269" height="2.33067" fill="#4A3645"/>
<rect x="167.729" y="71.9111" width="0.932269" height="2.33067" fill="#4A3645"/>
<rect x="207.351" y="57.228" width="0.932269" height="4.42828" fill="#4A3645"/>
<rect x="216.557" y="61.7729" width="0.932269" height="4.42828" fill="#4A3645"/>
<rect x="216.557" y="71.5615" width="0.932269" height="1.98107" fill="#4A3645"/>
<rect x="225.705" y="73.4844" width="0.932269" height="1.98107" transform="rotate(90 225.705 73.4844)" fill="#4A3645"/>
<rect x="195.347" y="48.8374" width="0.932269" height="12.3526" fill="#4A3645"/>
<rect x="207.467" y="73.543" width="0.932269" height="32.0467" fill="#4A3645"/>
<rect x="224.83" y="82.5156" width="0.932269" height="32.7459" fill="#4A3645"/>
<rect x="224.83" y="57.4609" width="0.932269" height="20.2768" fill="#4A3645"/>
<rect x="224.83" y="24.249" width="0.932269" height="28.4342" fill="#4A3645"/>
<rect x="207.583" y="24.249" width="0.932269" height="28.4342" fill="#4A3645"/>
<rect x="189.637" y="24.249" width="0.932269" height="28.4342" fill="#4A3645"/>
<rect x="168.195" y="28.6772" width="0.932269" height="32.979" fill="#4A3645"/>
<rect x="142.208" y="28.6772" width="0.932269" height="32.979" fill="#4A3645"/>
<rect x="120.533" y="28.6772" width="0.932269" height="24.1224" fill="#4A3645"/>
<rect x="102.819" y="24.249" width="0.932269" height="36.5915" fill="#4A3645"/>
<rect x="120.533" y="57.4609" width="0.932269" height="3.61254" fill="#4A3645"/>
<rect x="242.543" y="60.8408" width="0.93227" height="27.5019" transform="rotate(90 242.543 60.8408)" fill="#4A3645"/>
<rect x="209.681" y="60.8408" width="0.932269" height="20.8595" transform="rotate(90 209.681 60.8408)" fill="#4A3645"/>
<rect x="183.461" y="60.8408" width="0.932269" height="15.732" transform="rotate(90 183.461 60.8408)" fill="#4A3645"/>
<rect x="143.14" y="60.8408" width="0.93227" height="24.1224" transform="rotate(90 143.14 60.8408)" fill="#4A3645"/>
<rect x="113.657" y="60.8408" width="0.932269" height="20.8595" transform="rotate(90 113.657 60.8408)" fill="#4A3645"/>
<rect x="56.5557" y="72.4941" width="0.932269" height="9.55575" transform="rotate(90 56.5557 72.4941)" fill="#4A3645"/>
<rect x="86.5054" y="56.1792" width="0.93227" height="39.5049" transform="rotate(90 86.5054 56.1792)" fill="#4A3645"/>
<rect x="103.752" y="86.1284" width="0.932269" height="17.48" transform="rotate(90 103.752 86.1284)" fill="#4A3645"/>
<rect x="190.22" y="86.1284" width="0.932269" height="17.48" transform="rotate(90 190.22 86.1284)" fill="#4A3645"/>
<rect x="207.583" y="48.2549" width="0.932269" height="17.5966" transform="rotate(90 207.583 48.2549)" fill="#4A3645"/>
<rect x="74.502" y="73.4263" width="0.93227" height="23.5398" transform="rotate(90 74.502 73.4263)" fill="#4A3645"/>
<rect x="105.034" y="73.4263" width="0.93227" height="25.2878" transform="rotate(90 105.034 73.4263)" fill="#4A3645"/>
<rect x="131.138" y="73.4263" width="0.932269" height="20.743" transform="rotate(90 131.138 73.4263)" fill="#4A3645"/>
<rect x="192.434" y="73.4263" width="0.932269" height="12.236" transform="rotate(90 192.434 73.4263)" fill="#4A3645"/>
<rect x="218.42" y="73.4263" width="0.932269" height="20.8595" transform="rotate(90 218.42 73.4263)" fill="#4A3645"/>
<rect x="175.42" y="73.4263" width="0.93227" height="39.0387" transform="rotate(90 175.42 73.4263)" fill="#4A3645"/>
<rect x="189.987" y="95.6841" width="0.932269" height="9.90535" fill="#4A3645"/>
<rect x="188.705" y="105.473" width="0.932269" height="9.90535" fill="#4A3645"/>
<rect x="208.749" y="105.473" width="0.932269" height="9.90535" fill="#4A3645"/>
<rect x="137.547" y="73.543" width="0.932269" height="4.19521" fill="#4A3645"/>
<rect x="137.547" y="102.21" width="0.932269" height="4.19521" fill="#4A3645"/>
<rect x="172.624" y="73.543" width="0.932269" height="4.19521" fill="#4A3645"/>
<rect x="67.9766" y="82.5156" width="0.932269" height="29.8326" fill="#4A3645"/>
<rect x="198.261" y="74.0088" width="0.466134" height="4.77788" fill="#4A3645"/>
<rect x="217.605" y="74.0088" width="0.466134" height="4.77788" fill="#4A3645"/>
<rect x="198.261" y="82.5156" width="0.466134" height="5.01094" fill="#4A3645"/>
<rect x="180.897" y="82.0498" width="0.466134" height="4.19521" fill="#4A3645"/>
<rect x="180.897" y="74.0088" width="0.466134" height="4.19521" fill="#4A3645"/>
<rect x="218.654" y="87.0605" width="0.466135" height="21.0926" transform="rotate(90 218.654 87.0605)" fill="#4A3645"/>
<rect x="192.784" y="87.0605" width="0.466134" height="1.86454" transform="rotate(90 192.784 87.0605)" fill="#4A3645"/>
<rect x="225.296" y="87.0605" width="0.466134" height="1.86454" transform="rotate(90 225.296 87.0605)" fill="#4A3645"/>
<rect x="227.278" y="76.5728" width="0.466134" height="1.86454" transform="rotate(90 227.278 76.5728)" fill="#4A3645"/>
<rect x="229.259" y="46.6235" width="0.466134" height="3.84561" transform="rotate(90 229.259 46.6235)" fill="#4A3645"/>
<rect x="242.543" y="46.6235" width="0.466135" height="8.39042" transform="rotate(90 242.543 46.6235)" fill="#4A3645"/>
<rect x="225.413" y="51.0518" width="0.466134" height="3.84561" transform="rotate(90 225.413 51.0518)" fill="#4A3645"/>
<rect x="190.569" y="51.8677" width="0.466134" height="3.02987" transform="rotate(90 190.569 51.8677)" fill="#4A3645"/>
<rect x="216.673" y="51.0518" width="0.466135" height="8.15735" transform="rotate(90 216.673 51.0518)" fill="#4A3645"/>
<rect x="182.878" y="51.8677" width="0.466135" height="13.8675" transform="rotate(90 182.878 51.8677)" fill="#4A3645"/>
<rect x="180.781" y="52.3335" width="0.466134" height="1.86454" fill="#4A3645"/>
<rect x="180.781" y="57.9272" width="0.466134" height="3.26294" fill="#4A3645"/>
<rect x="110.627" y="74.3584" width="0.466134" height="4.07868" fill="#4A3645"/>
<rect x="127.991" y="74.3584" width="0.466134" height="4.42828" fill="#4A3645"/>
<rect x="131.138" y="78.3208" width="0.466134" height="2.79681" transform="rotate(90 131.138 78.3208)" fill="#4A3645"/>
<rect x="110.627" y="82.1665" width="0.466134" height="5.36054" fill="#4A3645"/>
<rect x="130.671" y="82.5156" width="0.466134" height="5.01094" fill="#4A3645"/>
<rect x="242.893" y="76.5728" width="0.466135" height="10.7211" transform="rotate(90 242.893 76.5728)" fill="#4A3645"/>
<rect x="217.605" y="82.5156" width="0.466134" height="5.01094" fill="#4A3645"/>
<rect x="151.356" y="111.125" width="0.815735" height="8.62348" transform="rotate(90 151.356 111.125)" stroke="#4A3645" stroke-width="0.815735"/>
<path d="M142.324 111.533L151.544 111.533" stroke="#4A3645" stroke-width="0.7"/>
<rect x="181.888" y="105.881" width="0.815735" height="5.12748" transform="rotate(90 181.888 105.881)" stroke="#4A3645" stroke-width="0.815735"/>
<path d="M176.352 106.289L182.157 106.289" stroke="#4A3645" stroke-width="0.7"/>
<rect x="203.33" y="111.125" width="0.815735" height="8.15735" transform="rotate(90 203.33 111.125)" stroke="#4A3645" stroke-width="0.815735"/>
<path d="M194.765 111.533L203.529 111.533" stroke="#4A3645" stroke-width="0.7"/>
<rect x="217.198" y="105.998" width="0.815735" height="4.42828" transform="rotate(90 217.198 105.998)" stroke="#4A3645" stroke-width="0.815735"/>
<path d="M212.361 106.406L217.483 106.406" stroke="#4A3645" stroke-width="0.7"/>
<rect x="238.406" y="105.998" width="0.815735" height="4.42828" transform="rotate(90 238.406 105.998)" stroke="#4A3645" stroke-width="0.815735"/>
<path d="M233.57 106.406L238.692 106.406" stroke="#4A3645" stroke-width="0.7"/>
<rect x="243.592" y="83.4486" width="0.815735" height="4.42828" transform="rotate(-180 243.592 83.4486)" stroke="#4A3645" stroke-width="0.815735"/>
<path d="M243.185 78.6123L243.185 83.7344" stroke="#4A3645" stroke-width="0.7"/>
<rect x="243.592" y="70.1053" width="0.815735" height="4.42828" transform="rotate(-180 243.592 70.1053)" stroke="#4A3645" stroke-width="0.815735"/>
<path d="M243.185 65.2691L243.185 70.3911" stroke="#4A3645" stroke-width="0.7"/>
<rect x="243.534" y="56.1214" width="0.815735" height="6.75893" transform="rotate(-180 243.534 56.1214)" stroke="#4A3645" stroke-width="0.815735"/>
<path d="M243.126 48.9545L243.126 56.353" stroke="#4A3645" stroke-width="0.7"/>
<rect x="211.837" y="23.9579" width="0.815735" height="8.97305" transform="rotate(-90 211.837 23.9579)" stroke="#4A3645" stroke-width="0.815735"/>
<path d="M221.218 23.5498L211.657 23.5498" stroke="#4A3645" stroke-width="0.7"/>
<rect x="194.59" y="23.9579" width="0.815735" height="8.97305" transform="rotate(-90 194.59 23.9579)" stroke="#4A3645" stroke-width="0.815735"/>
<path d="M203.971 23.5498L194.41 23.5498" stroke="#4A3645" stroke-width="0.7"/>
<rect x="177.576" y="33.514" width="0.815735" height="4.54479" transform="rotate(-90 177.576 33.514)" stroke="#4A3645" stroke-width="0.815735"/>
<path d="M182.528 33.106L177.292 33.106" stroke="#4A3645" stroke-width="0.7"/>
<rect x="233.396" y="29.202" width="0.815735" height="4.54479" transform="rotate(-90 233.396 29.202)" stroke="#4A3645" stroke-width="0.815735"/>
<path d="M238.348 28.7939L233.112 28.7939" stroke="#4A3645" stroke-width="0.7"/>
<rect x="159.63" y="28.7357" width="0.815735" height="4.54479" transform="rotate(-90 159.63 28.7357)" stroke="#4A3645" stroke-width="0.815735"/>
<path d="M164.583 28.3276L159.347 28.3276" stroke="#4A3645" stroke-width="0.7"/>
<rect x="147.16" y="28.7357" width="0.815735" height="4.54479" transform="rotate(-90 147.16 28.7357)" stroke="#4A3645" stroke-width="0.815735"/>
<path d="M152.113 28.3276L146.877 28.3276" stroke="#4A3645" stroke-width="0.7"/>
<rect x="129.331" y="33.3973" width="0.815735" height="4.54479" transform="rotate(-90 129.331 33.3973)" stroke="#4A3645" stroke-width="0.815735"/>
<path d="M134.284 32.9893L129.048 32.9893" stroke="#4A3645" stroke-width="0.7"/>
<rect x="106.84" y="23.9579" width="0.815735" height="9.08959" transform="rotate(-90 106.84 23.9579)" stroke="#4A3645" stroke-width="0.815735"/>
<path d="M116.338 23.5498L106.663 23.5498" stroke="#4A3645" stroke-width="0.7"/>
<rect x="89.8263" y="23.9579" width="0.815735" height="9.08959" transform="rotate(-90 89.8263 23.9579)" stroke="#4A3645" stroke-width="0.815735"/>
<path d="M99.3234 23.5498L89.6484 23.5498" stroke="#4A3645" stroke-width="0.7"/>
<rect x="55.3903" y="46.4489" width="0.815735" height="6.23454" stroke="#4A3645" stroke-width="0.815735"/>
<path d="M55.7983 52.9747L55.7983 46.0884" stroke="#4A3645" stroke-width="0.7"/>
<path d="M56.0557 24.3658L56.0557 31.0909L55.4242 31.0909L55.4242 23.2344L62.9312 23.2344L62.9312 23.8658L56.5557 23.8658L56.0557 23.8658L56.0557 24.3658Z" stroke="#4A3645"/>
<path d="M63.3149 23.5503L55.7403 23.5503L55.7403 31.5911" stroke="#4A3645" stroke-width="0.7"/>
<rect x="142.499" y="24.3074" width="0.582668" height="20.2768" transform="rotate(90 142.499 24.3074)" stroke="#4A3645" stroke-width="0.582668"/>
<path d="M121.931 24.5986L141.734 24.5986" stroke="#4A3645" stroke-width="0.7"/>
<rect x="189.579" y="24.3074" width="0.582668" height="20.2768" transform="rotate(90 189.579 24.3074)" stroke="#4A3645" stroke-width="0.582668"/>
<path d="M170.293 24.5986L190.095 24.5986" stroke="#4A3645" stroke-width="0.7"/>
<path d="M241.958 20.5444L227.603 20.6289V20.3208H242.626V24.5648H242.461V21.0444V20.5415L241.958 20.5444Z" stroke="#4A3645"/>
<path d="M242.543 25.0647L242.543 20.4033L227.161 20.4033" stroke="#4A3645" stroke-width="0.7"/>
</svg>
