<svg width="290" height="135" viewBox="0 0 290 135" fill="none" xmlns="http://www.w3.org/2000/svg">
<rect width="290" height="135" fill="white"/>
<path d="M185.778 56.6489L185.778 58.258L188.125 58.258C188.569 58.258 188.929 57.8978 188.929 57.4535C188.929 57.0091 188.569 56.6489 188.125 56.6489L185.778 56.6489Z" fill="#FFE4E4" stroke="#AA98A6" stroke-width="0.5"/>
<path d="M185.778 56.6489L185.778 58.258L185.907 58.258L185.907 56.6489L185.778 56.6489Z" fill="#FFE4E4" stroke="#AA98A6" stroke-width="0.314786"/>
<path d="M187.191 56.6489C187.037 56.6489 186.911 56.7744 186.911 56.9291L186.911 57.9778C186.911 58.1326 187.037 58.258 187.191 58.258L188.125 58.258C188.569 58.258 188.929 57.8978 188.929 57.4535C188.929 57.0091 188.569 56.6489 188.125 56.6489L187.191 56.6489Z" fill="#FFE4E4" stroke="#AA98A6" stroke-width="0.5"/>
<path d="M185.778 60.0962L185.778 61.9571L185.858 61.9571C186.372 61.9571 186.789 61.5405 186.789 61.0266C186.789 60.5128 186.372 60.0962 185.858 60.0962L185.778 60.0962Z" fill="#FFE4E4" stroke="#AA98A6" stroke-width="0.5"/>
<rect x="0.196741" y="0.196741" width="1.71558" height="0.393482" rx="0.196741" transform="matrix(1.31134e-07 1 1 -1.31134e-07 186.126 59.9722)" fill="#FFE4E4" stroke="#AA98A6" stroke-width="0.393482"/>
<ellipse cx="186.535" cy="61.0424" rx="0.0629572" ry="0.0629572" transform="rotate(90 186.535 61.0424)" fill="#FFE4E4"/>
<rect x="0.0314786" y="0.0314786" width="0.0629572" height="0.314786" rx="0.0314786" transform="matrix(1.31134e-07 1 1 -1.31134e-07 186 60.9795)" fill="#FFE4E4" stroke="#AA98A6" stroke-width="0.0629572"/>
<path d="M89.1104 30.3146L89.1104 23.3447" stroke="#AA98A6" stroke-width="0.7"/>
<path d="M199.784 30.3146L199.784 23.3447" stroke="#AA98A6" stroke-width="0.7"/>
<path d="M90.7998 30.3146L90.7998 23.3447" stroke="#AA98A6" stroke-width="0.7"/>
<path d="M201.474 30.3146L201.474 23.3447" stroke="#AA98A6" stroke-width="0.7"/>
<path d="M87.4204 30.3146L87.4204 23.3447" stroke="#AA98A6" stroke-width="0.7"/>
<path d="M198.094 30.3146L198.094 23.3447" stroke="#AA98A6" stroke-width="0.7"/>
<path d="M85.731 30.3146L85.731 23.3447" stroke="#AA98A6" stroke-width="0.7"/>
<path d="M196.405 30.3146L196.405 23.3447" stroke="#AA98A6" stroke-width="0.7"/>
<path d="M84.0415 30.3146L84.0415 23.3447" stroke="#AA98A6" stroke-width="0.7"/>
<path d="M194.715 30.3146L194.715 23.3447" stroke="#AA98A6" stroke-width="0.7"/>
<path d="M82.3516 30.3146L82.3516 23.3447" stroke="#AA98A6" stroke-width="0.7"/>
<path d="M193.025 30.3146L193.025 23.3447" stroke="#AA98A6" stroke-width="0.7"/>
<rect x="205.751" y="106.192" width="7.49794" height="0.739233" stroke="#4A3645" stroke-width="0.739233"/>
<rect x="205.408" y="106.588" width="8.18437" height="0.0528024" stroke="#4A3645" stroke-width="0.0528024"/>
<rect x="189.488" y="109.888" width="7.92035" height="0.739233" stroke="#4A3645" stroke-width="0.739233"/>
<rect x="189.145" y="110.284" width="8.60678" height="0.0528024" stroke="#4A3645" stroke-width="0.0528024"/>
<rect x="173.436" y="106.192" width="7.92035" height="0.739233" stroke="#4A3645" stroke-width="0.739233"/>
<rect x="173.092" y="106.588" width="8.60678" height="0.0528024" stroke="#4A3645" stroke-width="0.0528024"/>
<rect x="158.123" y="106.192" width="7.92035" height="0.739233" stroke="#4A3645" stroke-width="0.739233"/>
<rect x="157.78" y="106.588" width="8.60678" height="0.0528024" stroke="#4A3645" stroke-width="0.0528024"/>
<rect x="142.071" y="110.099" width="8.34277" height="0.739233" stroke="#4A3645" stroke-width="0.739233"/>
<rect x="141.728" y="110.495" width="9.0292" height="0.0528024" stroke="#4A3645" stroke-width="0.0528024"/>
<rect x="94.7602" y="110.099" width="8.34277" height="0.739233" stroke="#4A3645" stroke-width="0.739233"/>
<rect x="94.417" y="110.495" width="9.0292" height="0.0528024" stroke="#4A3645" stroke-width="0.0528024"/>
<rect x="78.4971" y="110.099" width="8.34277" height="0.739233" stroke="#4A3645" stroke-width="0.739233"/>
<rect x="78.1538" y="110.495" width="9.0292" height="0.0528024" stroke="#4A3645" stroke-width="0.0528024"/>
<rect x="62.7617" y="105.98" width="8.34277" height="0.739233" stroke="#4A3645" stroke-width="0.739233"/>
<rect x="62.4185" y="106.376" width="9.0292" height="0.0528024" stroke="#4A3645" stroke-width="0.0528024"/>
<rect x="63.6069" y="48.2148" width="8.34277" height="0.739233" transform="rotate(90 63.6069 48.2148)" stroke="#4A3645" stroke-width="0.739233"/>
<rect x="63.2109" y="47.8716" width="9.0292" height="0.0528024" transform="rotate(90 63.2109 47.8716)" stroke="#4A3645" stroke-width="0.0528024"/>
<path d="M63.4765 31.7934L63.4765 38.8969L62.998 38.8969L62.998 30.8149L69.9712 30.8149L69.9712 31.2934L63.9765 31.2934L63.4765 31.2934L63.4765 31.7934Z" stroke="#4A3645"/>
<path d="M70.3656 31.1069H63.29V38.1296" stroke="#4A3645" stroke-width="0.7"/>
<path d="M63.2373 39.397L63.1317 39.397" stroke="#4A3645"/>
<rect x="102.786" y="31.4238" width="8.34277" height="0.739233" transform="rotate(-180 102.786 31.4238)" stroke="#4A3645" stroke-width="0.739233"/>
<rect x="103.129" y="31.0278" width="9.0292" height="0.0528024" transform="rotate(-180 103.129 31.0278)" stroke="#4A3645" stroke-width="0.0528024"/>
<rect x="118.627" y="31.4238" width="8.34277" height="0.739233" transform="rotate(-180 118.627 31.4238)" stroke="#4A3645" stroke-width="0.739233"/>
<rect x="118.97" y="31.0278" width="9.0292" height="0.0528024" transform="rotate(-180 118.97 31.0278)" stroke="#4A3645" stroke-width="0.0528024"/>
<rect x="162.77" y="35.648" width="16.5799" height="0.739233" transform="rotate(-180 162.77 35.648)" stroke="#4A3645" stroke-width="0.739233"/>
<rect x="163.113" y="35.2519" width="17.2664" height="0.0528024" transform="rotate(-180 163.113 35.2519)" stroke="#4A3645" stroke-width="0.0528024"/>
<rect x="184.418" y="40.083" width="16.5799" height="0.739233" transform="rotate(-180 184.418 40.083)" stroke="#4A3645" stroke-width="0.739233"/>
<rect x="184.762" y="39.687" width="17.2664" height="0.0528024" transform="rotate(-180 184.762 39.687)" stroke="#4A3645" stroke-width="0.0528024"/>
<rect x="215.255" y="31.4238" width="30.0973" height="0.739233" transform="rotate(-180 215.255 31.4238)" stroke="#4A3645" stroke-width="0.739233"/>
<rect x="215.599" y="31.0278" width="30.7838" height="0.0528024" transform="rotate(-180 215.599 31.0278)" stroke="#4A3645" stroke-width="0.0528024"/>
<rect x="232.997" y="35.7534" width="12.7782" height="0.739233" transform="rotate(-180 232.997 35.7534)" stroke="#4A3645" stroke-width="0.739233"/>
<rect x="233.34" y="35.3574" width="13.4646" height="0.0528024" transform="rotate(-180 233.34 35.3574)" stroke="#4A3645" stroke-width="0.0528024"/>
<rect x="233.63" y="53.0727" width="8.34277" height="0.739233" transform="rotate(90 233.63 53.0727)" stroke="#4A3645" stroke-width="0.739233"/>
<rect x="233.234" y="52.7295" width="9.0292" height="0.0528024" transform="rotate(90 233.234 52.7295)" stroke="#4A3645" stroke-width="0.0528024"/>
<rect x="233.63" y="66.9067" width="8.34277" height="0.739233" transform="rotate(90 233.63 66.9067)" stroke="#4A3645" stroke-width="0.739233"/>
<rect x="233.234" y="66.5635" width="9.0292" height="0.0528024" transform="rotate(90 233.234 66.5635)" stroke="#4A3645" stroke-width="0.0528024"/>
<rect x="233.63" y="80.2129" width="8.34277" height="0.739233" transform="rotate(90 233.63 80.2129)" stroke="#4A3645" stroke-width="0.739233"/>
<rect x="233.234" y="79.8697" width="9.0292" height="0.0528024" transform="rotate(90 233.234 79.8697)" stroke="#4A3645" stroke-width="0.0528024"/>
<path d="M229.353 105.928L225.657 108.04" stroke="#4A3645" stroke-width="0.7"/>
<path d="M220.588 105.928L224.284 108.04" stroke="#4A3645" stroke-width="0.7"/>
<path d="M134.415 105.928L130.719 108.04" stroke="#4A3645" stroke-width="0.7"/>
<path d="M125.65 105.928L129.346 108.04" stroke="#4A3645" stroke-width="0.7"/>
<path d="M118.996 105.928L115.3 108.04" stroke="#4A3645" stroke-width="0.7"/>
<path d="M110.231 105.928L113.927 108.04" stroke="#4A3645" stroke-width="0.7"/>
<path d="M109.915 70.5503L113.611 72.6624" stroke="#4A3645" stroke-width="0.7"/>
<path d="M86.6813 72.5566L90.3774 74.6687" stroke="#4A3645" stroke-width="0.7"/>
<path d="M165.779 82.061L169.476 84.1731" stroke="#4A3645" stroke-width="0.7"/>
<path d="M63.8706 72.662L61.7585 68.9658" stroke="#4A3645" stroke-width="0.7"/>
<path d="M63.8706 63.8971L61.7585 67.5933" stroke="#4A3645" stroke-width="0.7"/>
<path d="M126.072 39.7134L129.59 37.6013" stroke="#4A3645" stroke-width="0.7"/>
<path d="M134.415 39.7134L130.896 37.6013" stroke="#4A3645" stroke-width="0.7"/>
<path d="M185.633 23.1864L189.382 21.0215M190.068 22.3415L191.705 23.292" stroke="#4A3645" stroke-width="0.7"/>
<rect x="90.3774" y="31.7935" width="0.633628" height="21.5434" fill="#4A3645"/>
<rect x="90.3774" y="57.5605" width="0.633628" height="12.2501" fill="#4A3645"/>
<rect x="106.324" y="61.6792" width="0.633628" height="3.80177" fill="#4A3645"/>
<rect x="101.149" y="65.481" width="0.633628" height="11.1941" fill="#4A3645"/>
<rect x="121.848" y="65.481" width="0.633628" height="10.7717" fill="#4A3645"/>
<rect x="113.611" y="72.6621" width="0.633628" height="3.59056" fill="#4A3645"/>
<rect x="113.611" y="65.3755" width="0.633628" height="3.59056" fill="#4A3645"/>
<rect x="123.96" y="64.8477" width="0.63363" height="33.0543" transform="rotate(90 123.96 64.8477)" fill="#4A3645"/>
<rect x="90.6943" y="60.5176" width="0.633629" height="17.3192" transform="rotate(90 90.6943 60.5176)" fill="#4A3645"/>
<rect x="108.119" y="76.3584" width="0.63363" height="48.5782" transform="rotate(90 108.119 76.3584)" fill="#4A3645"/>
<rect x="68.5176" y="60.5176" width="0.633629" height="5.80826" transform="rotate(90 68.5176 60.5176)" fill="#4A3645"/>
<rect x="187.111" y="76.2529" width="0.633632" height="74.2401" transform="rotate(90 187.111 76.2529)" fill="#4A3645"/>
<rect x="185.21" y="84.1733" width="0.633629" height="15.7351" transform="rotate(90 185.21 84.1733)" fill="#4A3645"/>
<rect x="106.324" y="31.6875" width="0.633628" height="25.6619" fill="#4A3645"/>
<rect x="121.954" y="31.6875" width="0.633628" height="33.0543" fill="#4A3645"/>
<rect x="121.954" y="76.3584" width="0.633628" height="33.0543" fill="#4A3645"/>
<rect x="185" y="76.4639" width="0.633628" height="33.0543" fill="#4A3645"/>
<rect x="106.324" y="84.3843" width="0.633628" height="10.6661" fill="#4A3645"/>
<rect x="137.688" y="84.3843" width="0.633628" height="10.6661" fill="#4A3645"/>
<rect x="153.846" y="84.3843" width="0.633628" height="10.6661" fill="#4A3645"/>
<rect x="169.476" y="84.3843" width="0.633628" height="10.6661" fill="#4A3645"/>
<rect x="201.263" y="84.3843" width="0.633628" height="25.2395" fill="#4A3645"/>
<rect x="216.892" y="84.3843" width="0.633628" height="25.2395" fill="#4A3645"/>
<rect x="201.263" y="76.6753" width="0.633628" height="3.48496" fill="#4A3645"/>
<rect x="216.892" y="76.0415" width="0.633628" height="4.11858" fill="#4A3645"/>
<rect x="216.892" y="74.563" width="0.633628" height="1.58407" fill="#4A3645"/>
<rect x="216.892" y="46.6836" width="0.633628" height="20.2761" fill="#4A3645"/>
<rect x="201.685" y="53.3364" width="0.633629" height="16.3687" transform="rotate(90 201.685 53.3364)" fill="#4A3645"/>
<rect x="202.952" y="64.7417" width="0.633629" height="19.0089" transform="rotate(90 202.952 64.7417)" fill="#4A3645"/>
<rect x="179.191" y="64.7417" width="0.633629" height="13.8342" transform="rotate(90 179.191 64.7417)" fill="#4A3645"/>
<rect x="142.652" y="64.7417" width="0.633629" height="11.1941" transform="rotate(90 142.652 64.7417)" fill="#4A3645"/>
<rect x="218.793" y="64.7417" width="0.633629" height="10.9829" transform="rotate(90 218.793 64.7417)" fill="#4A3645"/>
<rect x="217.209" y="76.2529" width="0.633628" height="1.58407" transform="rotate(90 217.209 76.2529)" fill="#4A3645"/>
<rect x="210.978" y="76.2529" width="0.633629" height="19.0089" transform="rotate(90 210.978 76.2529)" fill="#4A3645"/>
<rect x="233.683" y="64.7417" width="0.633629" height="10.1381" transform="rotate(90 233.683 64.7417)" fill="#4A3645"/>
<rect x="201.051" y="46.6836" width="0.633628" height="10.6661" fill="#4A3645"/>
<rect x="201.051" y="31.6875" width="0.633628" height="7.81475" fill="#4A3645"/>
<rect x="165.04" y="35.9116" width="0.633628" height="31.0478" fill="#4A3645"/>
<rect x="142.124" y="35.9116" width="0.633628" height="31.0478" fill="#4A3645"/>
<rect x="201.051" y="61.6792" width="0.633628" height="3.16814" fill="#4A3645"/>
<rect x="184.894" y="49.7461" width="0.633628" height="17.3192" fill="#4A3645"/>
<rect x="184.894" y="31.7935" width="0.633628" height="13.623" fill="#4A3645"/>
<rect x="90.3774" y="84.3843" width="0.633628" height="10.6661" fill="#4A3645"/>
<rect x="74.5371" y="84.3843" width="0.633628" height="10.6661" fill="#4A3645"/>
<rect x="106.324" y="76.6753" width="0.633628" height="3.37935" fill="#4A3645"/>
<rect x="137.688" y="76.6753" width="0.633628" height="3.37935" fill="#4A3645"/>
<rect x="153.846" y="76.6753" width="0.633628" height="3.37935" fill="#4A3645"/>
<rect x="169.476" y="76.6753" width="0.633628" height="3.37935" fill="#4A3645"/>
<rect x="168.525" y="72.1343" width="0.633628" height="4.22419" fill="#4A3645"/>
<rect x="177.29" y="65.3755" width="0.633628" height="10.9829" fill="#4A3645"/>
<rect x="168.525" y="64.9531" width="0.633628" height="3.48496" fill="#4A3645"/>
<rect x="165.04" y="74.6689" width="0.633628" height="2.3233" fill="#4A3645"/>
<path d="M148.619 50.4854H147.193" stroke="#AA98A6" stroke-width="0.7"/>
<path d="M148.671 49.0068L144.13 49.0068" stroke="#AA98A6" stroke-width="0.7"/>
<path d="M148.671 47.5283L142.546 47.5283" stroke="#AA98A6" stroke-width="0.7"/>
<path d="M148.671 46.0498L142.546 46.0498" stroke="#AA98A6" stroke-width="0.7"/>
<path d="M165.357 47.4224L159.232 47.4224" stroke="#AA98A6" stroke-width="0.7"/>
<path d="M165.357 50.1685L159.232 50.1685" stroke="#AA98A6" stroke-width="0.7"/>
<path d="M165.357 48.7954L159.232 48.7954" stroke="#AA98A6" stroke-width="0.7"/>
<path d="M165.357 51.647L159.232 51.647" stroke="#AA98A6" stroke-width="0.7"/>
<path d="M165.357 53.1255L159.232 53.1255" stroke="#AA98A6" stroke-width="0.7"/>
<path d="M165.357 54.498L159.232 54.498" stroke="#AA98A6" stroke-width="0.7"/>
<path d="M165.357 56.0166L159.232 56.0166" stroke="#AA98A6" stroke-width="0.7"/>
<path d="M165.357 45.9443L159.232 45.9443" stroke="#AA98A6" stroke-width="0.7"/>
<rect x="157.859" y="45.2051" width="0.633628" height="13.5174" fill="#4A3645"/>
<rect x="149.305" y="45.2051" width="0.633628" height="13.5174" fill="#4A3645"/>
<rect x="158.493" y="45.2051" width="0.633629" height="9.18761" transform="rotate(90 158.493 45.2051)" fill="#4A3645"/>
<rect x="150.678" y="58.1943" width="0.633628" height="1.37286" transform="rotate(90 150.678 58.1943)" fill="#4A3645"/>
<rect x="158.493" y="58.1943" width="0.633628" height="2.64012" transform="rotate(90 158.493 58.1943)" fill="#4A3645"/>
<rect x="148.883" y="51.2241" width="0.316815" height="7.28673" transform="rotate(-180 148.883 51.2241)" fill="#4A3645"/>
<rect x="159.337" y="57.4551" width="0.316815" height="13.5174" transform="rotate(-180 159.337 57.4551)" fill="#4A3645"/>
<rect x="159.337" y="43.832" width="0.316814" height="10.7717" transform="rotate(90 159.337 43.832)" fill="#4A3645"/>
<rect x="142.124" y="74.6689" width="0.633628" height="2.3233" fill="#4A3645"/>
<rect x="90.3774" y="76.6753" width="0.633628" height="3.37935" fill="#4A3645"/>
<rect x="90.3774" y="74.6689" width="0.633628" height="3.37935" fill="#4A3645"/>
<rect x="74.5371" y="76.6753" width="0.633628" height="3.37935" fill="#4A3645"/>
<rect x="106.324" y="102.126" width="0.633628" height="7.49794" fill="#4A3645"/>
<rect x="137.688" y="102.126" width="0.633628" height="8.34277" fill="#4A3645"/>
<rect x="153.846" y="102.126" width="0.633628" height="8.34277" fill="#4A3645"/>
<rect x="169.476" y="102.126" width="0.633628" height="8.34277" fill="#4A3645"/>
<rect x="90.3774" y="102.126" width="0.633628" height="7.49794" fill="#4A3645"/>
<rect x="74.5371" y="102.126" width="0.633628" height="7.49794" fill="#4A3645"/>
<rect x="58.168" y="76.2529" width="1.47847" height="30.9422" fill="#4A3645"/>
<rect x="232.521" y="85.2295" width="1.47847" height="21.8602" fill="#4A3645"/>
<rect x="232.521" y="72.8735" width="1.47847" height="8.13156" fill="#4A3645"/>
<rect x="232.521" y="60.729" width="1.47847" height="8.13156" fill="#4A3645"/>
<rect x="232.521" y="34.6445" width="1.47847" height="19.6425" fill="#4A3645"/>
<rect x="183.416" y="22.7114" width="1.47847" height="17.5304" fill="#4A3645"/>
<rect x="202.53" y="22.7114" width="1.47847" height="9.08201" fill="#4A3645"/>
<rect x="91.645" y="22.0776" width="1.47847" height="9.71563" fill="#4A3645"/>
<rect x="72.5303" y="21.9722" width="1.47847" height="9.82124" fill="#4A3645"/>
<rect x="217.631" y="27.6748" width="1.47847" height="8.65959" fill="#4A3645"/>
<rect x="231.782" y="31.1597" width="1.47847" height="4.75221" fill="#4A3645"/>
<rect x="231.782" y="105.822" width="1.47847" height="4.75221" fill="#4A3645"/>
<rect x="216.364" y="105.822" width="1.47847" height="8.55398" fill="#4A3645"/>
<rect x="201.896" y="105.822" width="1.47847" height="8.55398" fill="#4A3645"/>
<rect x="183.521" y="105.822" width="1.47847" height="8.55398" fill="#4A3645"/>
<rect x="169.053" y="105.822" width="1.47847" height="8.55398" fill="#4A3645"/>
<rect x="154.479" y="105.822" width="1.47847" height="8.55398" fill="#4A3645"/>
<rect x="136.21" y="105.822" width="1.47847" height="8.55398" fill="#4A3645"/>
<rect x="121.531" y="105.822" width="1.47847" height="8.55398" fill="#4A3645"/>
<rect x="106.958" y="105.822" width="1.58407" height="8.55398" fill="#4A3645"/>
<rect x="72.9526" y="105.822" width="1.58407" height="8.55398" fill="#4A3645"/>
<rect x="165.674" y="31.1597" width="1.47847" height="9.18761" fill="#4A3645"/>
<rect x="140.646" y="31.1597" width="1.47847" height="8.65959" fill="#4A3645"/>
<rect x="122.587" y="31.1597" width="1.47847" height="8.65959" fill="#4A3645"/>
<rect x="62.498" y="38.1294" width="1.47847" height="9.82124" fill="#4A3645"/>
<rect x="62.498" y="56.0825" width="1.47847" height="7.81475" fill="#4A3645"/>
<rect x="62.498" y="72.6626" width="1.47847" height="3.69617" fill="#4A3645"/>
<rect x="58.8018" y="106.772" width="1.47847" height="3.59056" fill="#4A3645"/>
<rect x="62.8149" y="105.611" width="1.47847" height="3.59056" transform="rotate(90 62.8149 105.611)" fill="#4A3645"/>
<rect x="74.4312" y="105.611" width="1.47847" height="3.59056" transform="rotate(90 74.4312 105.611)" fill="#4A3645"/>
<rect x="78.5498" y="109.624" width="1.47847" height="4.11858" transform="rotate(90 78.5498 109.624)" fill="#4A3645"/>
<rect x="94.6016" y="109.624" width="1.47847" height="7.70914" transform="rotate(90 94.6016 109.624)" fill="#4A3645"/>
<rect x="107.169" y="109.624" width="1.47847" height="4.22419" transform="rotate(90 107.169 109.624)" fill="#4A3645"/>
<rect x="110.231" y="105.822" width="1.47847" height="1.68968" transform="rotate(90 110.231 105.822)" fill="#4A3645"/>
<rect x="121.637" y="105.822" width="1.47847" height="2.64012" transform="rotate(90 121.637 105.822)" fill="#4A3645"/>
<rect x="125.649" y="105.822" width="1.47847" height="2.95693" transform="rotate(90 125.649 105.822)" fill="#4A3645"/>
<rect x="136.949" y="105.822" width="1.47847" height="2.53451" transform="rotate(90 136.949 105.822)" fill="#4A3645"/>
<rect x="141.702" y="109.729" width="1.47847" height="4.01298" transform="rotate(90 141.702 109.729)" fill="#4A3645"/>
<rect x="154.479" y="109.729" width="1.47847" height="4.01298" transform="rotate(90 154.479 109.729)" fill="#4A3645"/>
<rect x="157.965" y="105.822" width="1.47847" height="2.11209" transform="rotate(90 157.965 105.822)" fill="#4A3645"/>
<rect x="169.053" y="105.822" width="1.47847" height="2.85133" transform="rotate(90 169.053 105.822)" fill="#4A3645"/>
<rect x="173.383" y="105.822" width="1.47847" height="2.85133" transform="rotate(90 173.383 105.822)" fill="#4A3645"/>
<rect x="184.366" y="105.822" width="1.47847" height="2.85133" transform="rotate(90 184.366 105.822)" fill="#4A3645"/>
<rect x="189.118" y="109.519" width="1.47847" height="4.11858" transform="rotate(90 189.118 109.519)" fill="#4A3645"/>
<rect x="201.896" y="109.519" width="1.47847" height="4.11858" transform="rotate(90 201.896 109.519)" fill="#4A3645"/>
<rect x="205.381" y="105.822" width="1.47847" height="2.00649" transform="rotate(90 205.381 105.822)" fill="#4A3645"/>
<rect x="216.364" y="105.822" width="1.47847" height="2.74572" transform="rotate(90 216.364 105.822)" fill="#4A3645"/>
<rect x="220.588" y="105.822" width="1.47847" height="2.74572" transform="rotate(90 220.588 105.822)" fill="#4A3645"/>
<rect x="232.099" y="105.822" width="1.47847" height="2.74572" transform="rotate(90 232.099 105.822)" fill="#4A3645"/>
<rect x="62.6035" y="60.0952" width="1.47847" height="7.60354" transform="rotate(90 62.6035 60.0952)" fill="#4A3645"/>
<rect x="62.6035" y="44.6772" width="1.47847" height="3.80177" transform="rotate(90 62.6035 44.6772)" fill="#4A3645"/>
<rect x="62.8149" y="74.8799" width="1.47847" height="7.60354" transform="rotate(90 62.8149 74.8799)" fill="#4A3645"/>
<rect x="94.6016" y="30.3149" width="1.47847" height="24.1835" transform="rotate(90 94.6016 30.3149)" fill="#4A3645"/>
<rect x="93.3345" y="21.9722" width="1.47847" height="12.4614" transform="rotate(90 93.3345 21.9722)" fill="#4A3645"/>
<rect x="74.748" y="21.9722" width="1.47847" height="0.950442" transform="rotate(90 74.748 21.9722)" fill="#4A3645"/>
<path d="M74.8008 22.2889L78.5497 20.124M79.2362 21.4441L80.8731 22.3945" stroke="#4A3645" stroke-width="0.7"/>
<rect x="110.337" y="30.3149" width="1.47847" height="7.60354" transform="rotate(90 110.337 30.3149)" fill="#4A3645"/>
<rect x="126.178" y="38.3408" width="1.47847" height="2.2177" transform="rotate(90 126.178 38.3408)" fill="#4A3645"/>
<rect x="140.646" y="38.3408" width="1.47847" height="6.23068" transform="rotate(90 140.646 38.3408)" fill="#4A3645"/>
<rect x="157.437" y="34.5391" width="1.47847" height="6.86431" transform="rotate(90 157.437 34.5391)" fill="#4A3645"/>
<rect x="204.853" y="30.3149" width="1.47847" height="6.86431" transform="rotate(90 204.853 30.3149)" fill="#4A3645"/>
<rect x="204.008" y="22.7114" width="1.47847" height="12.3558" transform="rotate(90 204.008 22.7114)" fill="#4A3645"/>
<rect x="185.633" y="22.7114" width="1.47847" height="0.739233" transform="rotate(90 185.633 22.7114)" fill="#4A3645"/>
<rect x="173.594" y="38.8687" width="1.47847" height="6.44189" transform="rotate(90 173.594 38.8687)" fill="#4A3645"/>
<rect x="184.894" y="38.8687" width="1.47847" height="3.16814" transform="rotate(90 184.894 38.8687)" fill="#4A3645"/>
<rect x="146.348" y="34.5391" width="1.47847" height="4.4354" transform="rotate(90 146.348 34.5391)" fill="#4A3645"/>
<rect x="189.329" y="30.3149" width="1.47847" height="4.4354" transform="rotate(90 189.329 30.3149)" fill="#4A3645"/>
<rect x="217.737" y="30.3149" width="1.47847" height="4.4354" transform="rotate(90 217.737 30.3149)" fill="#4A3645"/>
<rect x="233.789" y="34.6445" width="1.47847" height="4.4354" transform="rotate(90 233.789 34.6445)" fill="#4A3645"/>
<rect x="221.433" y="34.6445" width="1.47847" height="2.42891" transform="rotate(90 221.433 34.6445)" fill="#4A3645"/>
<rect x="165.885" y="34.5391" width="1.47847" height="4.4354" transform="rotate(90 165.885 34.5391)" fill="#4A3645"/>
<rect x="124.065" y="30.3149" width="1.47847" height="5.49145" transform="rotate(90 124.065 30.3149)" fill="#4A3645"/>
<path d="M121.625 67.0493L121.625 68.5781L119.377 68.5781C118.955 68.5781 118.613 68.2359 118.613 67.8137C118.613 67.3915 118.955 67.0493 119.377 67.0493L121.625 67.0493Z" fill="#FFE4E4" stroke="#AA98A6" stroke-width="0.5"/>
<path d="M121.625 67.0493L121.625 68.5781L121.52 68.5781L121.52 67.0493L121.625 67.0493Z" fill="#FFE4E4" stroke="#AA98A6" stroke-width="0.3028"/>
<path d="M120.275 67.0493C120.419 67.0493 120.535 67.1657 120.535 67.3093L120.535 68.3181C120.535 68.4617 120.419 68.5781 120.275 68.5781L119.377 68.5781C118.955 68.5781 118.613 68.2359 118.613 67.8137C118.613 67.3915 118.955 67.0493 119.377 67.0493L120.275 67.0493Z" fill="#FFE4E4" stroke="#AA98A6" stroke-width="0.5"/>
<path d="M121.625 70.5864L121.625 72.3574L121.558 72.3574C121.069 72.3574 120.672 71.961 120.672 71.4719C120.672 70.9829 121.069 70.5864 121.558 70.5864L121.625 70.5864Z" fill="#FFE4E4" stroke="#AA98A6" stroke-width="0.5"/>
<rect x="121.111" y="70.6468" width="1.65026" height="0.3785" rx="0.18925" transform="rotate(90 121.111 70.6468)" fill="#FFE4E4" stroke="#AA98A6" stroke-width="0.3785"/>
<ellipse cx="0.0605599" cy="0.06056" rx="0.0605599" ry="0.06056" transform="matrix(-4.37114e-08 1 1 4.37114e-08 120.846 71.4263)" fill="#FFE4E4"/>
<rect x="121.391" y="71.4565" width="0.0605599" height="0.3028" rx="0.03028" transform="rotate(90 121.391 71.4565)" fill="#FFE4E4" stroke="#AA98A6" stroke-width="0.0605599"/>
<path d="M183.06 77.1367H181.451V79.4837C181.451 79.928 181.811 80.2882 182.255 80.2882C182.699 80.2882 183.06 79.928 183.06 79.4837V77.1367Z" fill="#FFE4E4" stroke="#AA98A6" stroke-width="0.5"/>
<path d="M183.06 77.1367H181.451V77.2663H183.06V77.1367Z" fill="#FFE4E4" stroke="#AA98A6" stroke-width="0.314786"/>
<path d="M183.06 78.5502C183.06 78.3955 182.934 78.27 182.779 78.27H181.731C181.576 78.27 181.451 78.3955 181.451 78.5502V79.4838C181.451 79.9281 181.811 80.2883 182.255 80.2883C182.699 80.2883 183.06 79.9281 183.06 79.4838V78.5502Z" fill="#FFE4E4" stroke="#AA98A6" stroke-width="0.5"/>
<path d="M179.612 77.1367H177.751V77.2172C177.751 77.7311 178.168 78.1477 178.682 78.1477C179.196 78.1477 179.612 77.7311 179.612 77.2172V77.1367Z" fill="#FFE4E4" stroke="#AA98A6" stroke-width="0.5"/>
<rect x="-0.196741" y="0.196741" width="1.71558" height="0.393482" rx="0.196741" transform="matrix(-1 0 0 1 179.343 77.4849)" fill="#FFE4E4" stroke="#AA98A6" stroke-width="0.393482"/>
<ellipse cx="178.666" cy="77.8941" rx="0.0629572" ry="0.0629572" transform="rotate(180 178.666 77.8941)" fill="#FFE4E4"/>
<rect x="-0.0314786" y="0.0314786" width="0.0629572" height="0.314786" rx="0.0314786" transform="matrix(-1 0 0 1 178.666 77.3589)" fill="#FFE4E4" stroke="#AA98A6" stroke-width="0.0629572"/>
<path d="M201.685 61.6797L205.381 59.5676" stroke="#4A3645" stroke-width="0.7"/>
<path d="M100.854 68.0547L100.854 69.6638L98.5075 69.6638C98.0632 69.6638 97.703 69.3036 97.703 68.8592C97.703 68.4149 98.0632 68.0547 98.5075 68.0547L100.854 68.0547Z" fill="#FFE4E4" stroke="#AA98A6" stroke-width="0.5"/>
<path d="M100.854 68.0547L100.854 69.6638L100.725 69.6638L100.725 68.0547L100.854 68.0547Z" fill="#FFE4E4" stroke="#AA98A6" stroke-width="0.314786"/>
<path d="M99.441 68.0547C99.5958 68.0547 99.7212 68.1801 99.7212 68.3349L99.7212 69.3836C99.7212 69.5383 99.5958 69.6638 99.441 69.6638L98.5074 69.6638C98.0631 69.6638 97.7029 69.3036 97.7029 68.8592C97.7029 68.4149 98.0631 68.0547 98.5074 68.0547L99.441 68.0547Z" fill="#FFE4E4" stroke="#AA98A6" stroke-width="0.5"/>
<path d="M100.854 71.502L100.854 73.3628L100.774 73.3628C100.26 73.3628 99.8435 72.9463 99.8435 72.4324C99.8435 71.9185 100.26 71.502 100.774 71.502L100.854 71.502Z" fill="#FFE4E4" stroke="#AA98A6" stroke-width="0.5"/>
<rect x="100.31" y="71.5747" width="1.71558" height="0.393482" rx="0.196741" transform="rotate(90 100.31 71.5747)" fill="#FFE4E4" stroke="#AA98A6" stroke-width="0.393482"/>
<ellipse cx="0.0629572" cy="0.0629572" rx="0.0629572" ry="0.0629572" transform="matrix(-1.31134e-07 1 1 1.31134e-07 100.034 72.3853)" fill="#FFE4E4"/>
<rect x="100.601" y="72.4167" width="0.0629572" height="0.314786" rx="0.0314786" transform="rotate(90 100.601 72.4167)" fill="#FFE4E4" stroke="#AA98A6" stroke-width="0.0629572"/>
</svg>
