<svg width="290" height="135" viewBox="0 0 290 135" fill="none" xmlns="http://www.w3.org/2000/svg">
<rect width="290" height="135" fill="white"/>
<rect x="61" y="78.2231" width="0.825046" height="36.302" fill="#4A3645"/>
<rect x="65.1255" y="35.0117" width="0.825046" height="44.0368" fill="#4A3645"/>
<rect x="93.7959" y="31.9175" width="0.825046" height="3.71271" fill="#4A3645"/>
<rect x="103.593" y="31.9175" width="0.825046" height="3.71271" fill="#4A3645"/>
<rect x="119.888" y="20.5732" width="0.825046" height="13.8195" fill="#4A3645"/>
<rect x="110.916" y="20.5732" width="0.825046" height="4.84715" fill="#4A3645"/>
<rect x="74.3042" y="24.5952" width="0.825046" height="8.14733" fill="#4A3645"/>
<rect x="182.694" y="26.8643" width="0.825046" height="8.14733" fill="#4A3645"/>
<rect x="91.2173" y="60.3818" width="0.825046" height="11.6538" fill="#4A3645"/>
<rect x="91.2173" y="35.7334" width="0.825046" height="20.3168" fill="#4A3645"/>
<rect x="91.2173" y="76.8828" width="0.825046" height="5.15654" fill="#4A3645"/>
<rect x="106.48" y="78.2231" width="0.825046" height="3.81584" fill="#4A3645"/>
<rect x="137.11" y="78.2231" width="0.825046" height="3.81584" fill="#4A3645"/>
<rect x="152.374" y="78.2231" width="0.825046" height="3.81584" fill="#4A3645"/>
<rect x="167.534" y="78.2231" width="0.825046" height="3.81584" fill="#4A3645"/>
<rect x="198.061" y="78.2231" width="0.825046" height="3.81584" fill="#4A3645"/>
<rect x="213.324" y="76.6763" width="0.825046" height="5.3628" fill="#4A3645"/>
<rect x="213.324" y="64.1978" width="0.825046" height="5.15654" fill="#4A3645"/>
<rect x="215.181" y="67.0854" width="0.825047" height="10.5193" transform="rotate(90 215.181 67.0854)" fill="#4A3645"/>
<rect x="200.02" y="67.0854" width="0.825047" height="18.4604" transform="rotate(90 200.02 67.0854)" fill="#4A3645"/>
<rect x="229" y="67.0854" width="0.825046" height="9.07551" transform="rotate(90 229 67.0854)" fill="#4A3645"/>
<rect x="207.342" y="78.2231" width="0.825047" height="18.0479" transform="rotate(90 207.342 78.2231)" fill="#4A3645"/>
<rect x="207.549" y="78.2231" width="0.825047" height="18.2541" transform="rotate(90 207.549 78.2231)" fill="#4A3645"/>
<rect x="214.149" y="78.2231" width="0.825046" height="1.95948" transform="rotate(90 214.149 78.2231)" fill="#4A3645"/>
<rect x="184.653" y="78.2231" width="0.825047" height="10.6225" transform="rotate(90 184.653 78.2231)" fill="#4A3645"/>
<rect x="169.597" y="78.2231" width="0.825047" height="33.7238" transform="rotate(90 169.597 78.2231)" fill="#4A3645"/>
<rect x="131.232" y="78.2231" width="0.825047" height="18.151" transform="rotate(90 131.232 78.2231)" fill="#4A3645"/>
<rect x="108.956" y="78.2231" width="0.825046" height="3.81584" transform="rotate(90 108.956 78.2231)" fill="#4A3645"/>
<rect x="100.705" y="78.2231" width="0.825047" height="25.7827" transform="rotate(90 100.705 78.2231)" fill="#4A3645"/>
<rect x="91.4233" y="62.96" width="0.825047" height="25.3702" transform="rotate(90 91.4233 62.96)" fill="#4A3645"/>
<rect x="76.6758" y="113.7" width="0.825047" height="14.8508" transform="rotate(90 76.6758 113.7)" fill="#4A3645"/>
<rect x="107.203" y="110.503" width="0.825047" height="30.5267" transform="rotate(90 107.203 110.503)" fill="#4A3645"/>
<rect x="137.626" y="106.481" width="0.825047" height="30.5267" transform="rotate(90 137.626 106.481)" fill="#4A3645"/>
<rect x="152.683" y="110.503" width="0.825047" height="14.954" transform="rotate(90 152.683 110.503)" fill="#4A3645"/>
<rect x="182.797" y="106.275" width="0.825047" height="29.5985" transform="rotate(90 182.797 106.275)" fill="#4A3645"/>
<rect x="198.473" y="110.503" width="0.825047" height="15.2634" transform="rotate(90 198.473 110.503)" fill="#4A3645"/>
<rect x="214.046" y="106.481" width="0.825047" height="15.2634" transform="rotate(90 214.046 106.481)" fill="#4A3645"/>
<rect x="228.278" y="106.481" width="0.825047" height="15.2634" transform="rotate(90 228.278 106.481)" fill="#4A3645"/>
<rect x="228.278" y="39.0337" width="0.825047" height="14.6446" transform="rotate(90 228.278 39.0337)" fill="#4A3645"/>
<rect x="214.149" y="34.8052" width="0.825046" height="3.60958" transform="rotate(90 214.149 34.8052)" fill="#4A3645"/>
<rect x="206.517" y="34.8052" width="0.825047" height="23.8232" transform="rotate(90 206.517 34.8052)" fill="#4A3645"/>
<rect x="214.149" y="26.8643" width="0.825047" height="31.4549" transform="rotate(90 214.149 26.8643)" fill="#4A3645"/>
<rect x="164.027" y="39.0337" width="0.825047" height="22.7919" transform="rotate(90 164.027 39.0337)" fill="#4A3645"/>
<rect x="183.21" y="42.6431" width="0.825047" height="20.0074" transform="rotate(90 183.21 42.6431)" fill="#4A3645"/>
<rect x="141.854" y="42.6431" width="0.825047" height="20.0074" transform="rotate(90 141.854 42.6431)" fill="#4A3645"/>
<rect x="122.466" y="34.8052" width="0.825047" height="18.7698" transform="rotate(90 122.466 34.8052)" fill="#4A3645"/>
<rect x="99.6738" y="34.8052" width="0.825046" height="5.15654" transform="rotate(90 99.6738 34.8052)" fill="#4A3645"/>
<rect x="94.6206" y="34.8052" width="0.825047" height="29.4954" transform="rotate(90 94.6206 34.8052)" fill="#4A3645"/>
<rect x="94.6206" y="31.9175" width="0.825047" height="20.4199" transform="rotate(90 94.6206 31.9175)" fill="#4A3645"/>
<rect x="120.61" y="31.9175" width="0.825047" height="17.0166" transform="rotate(90 120.61 31.9175)" fill="#4A3645"/>
<rect x="120.61" y="20.5732" width="0.825046" height="9.59116" transform="rotate(90 120.61 20.5732)" fill="#4A3645"/>
<rect x="111.74" y="24.5952" width="0.825048" height="36.9208" transform="rotate(90 111.74 24.5952)" fill="#4A3645"/>
<rect x="123.601" y="67.1885" width="0.825047" height="25.8858" transform="rotate(90 123.601 67.1885)" fill="#4A3645"/>
<rect x="177.022" y="67.1885" width="0.825047" height="13.2007" transform="rotate(90 177.022 67.1885)" fill="#4A3645"/>
<rect x="177.022" y="67.1885" width="0.825047" height="13.2007" transform="rotate(90 177.022 67.1885)" fill="#4A3645"/>
<rect x="177.022" y="59.3506" width="0.412523" height="13.2007" transform="rotate(90 177.022 59.3506)" fill="#4A3645"/>
<rect width="0.412524" height="13.3039" transform="matrix(4.37114e-08 1 1 -4.37114e-08 128.035 58.5254)" fill="#4A3645"/>
<rect width="0.412523" height="8.86925" transform="matrix(4.37114e-08 1 1 -4.37114e-08 107.1 59.6597)" fill="#4A3645"/>
<rect width="0.412523" height="8.86925" transform="matrix(4.37114e-08 1 1 -4.37114e-08 107.1 50.6875)" fill="#4A3645"/>
<rect width="0.412523" height="8.86925" transform="matrix(4.37114e-08 1 1 -4.37114e-08 107.1 41.8184)" fill="#4A3645"/>
<rect width="0.412523" height="1.13444" transform="matrix(4.37114e-08 1 1 -4.37114e-08 120.506 41.8184)" fill="#4A3645"/>
<rect width="0.412523" height="8.86925" transform="matrix(4.37114e-08 1 1 -4.37114e-08 98.1274 41.8184)" fill="#4A3645"/>
<rect width="0.412523" height="8.86925" transform="matrix(4.37114e-08 1 1 -4.37114e-08 98.1274 53.6782)" fill="#4A3645"/>
<rect x="207.549" y="59.6597" width="0.412524" height="18.151" transform="rotate(90 207.549 59.6597)" fill="#4A3645"/>
<rect x="177.022" y="51.2031" width="0.412523" height="13.2007" transform="rotate(90 177.022 51.2031)" fill="#4A3645"/>
<rect width="0.412524" height="13.5101" transform="matrix(4.37114e-08 1 1 -4.37114e-08 127.726 50.8936)" fill="#4A3645"/>
<rect x="207.549" y="50.6875" width="0.412524" height="18.151" transform="rotate(90 207.549 50.6875)" fill="#4A3645"/>
<rect x="228.691" y="51.8218" width="0.412523" height="8.76611" transform="rotate(90 228.691 51.8218)" fill="#4A3645"/>
<rect x="228.381" y="85.6489" width="0.412523" height="8.55985" transform="rotate(90 228.381 85.6489)" fill="#4A3645"/>
<rect x="198.577" y="98.437" width="0.412523" height="8.66298" transform="rotate(90 198.577 98.437)" fill="#4A3645"/>
<rect x="207.858" y="99.3652" width="0.412523" height="9.07551" transform="rotate(90 207.858 99.3652)" fill="#4A3645"/>
<rect x="177.435" y="99.3652" width="0.412523" height="19.0792" transform="rotate(90 177.435 99.3652)" fill="#4A3645"/>
<rect x="207.549" y="86.1646" width="0.412523" height="8.76611" transform="rotate(90 207.549 86.1646)" fill="#4A3645"/>
<rect x="177.022" y="86.1646" width="0.412523" height="17.8416" transform="rotate(90 177.022 86.1646)" fill="#4A3645"/>
<rect x="146.496" y="86.1646" width="0.412523" height="18.151" transform="rotate(90 146.496 86.1646)" fill="#4A3645"/>
<rect x="137.42" y="99.3652" width="0.412523" height="9.59116" transform="rotate(90 137.42 99.3652)" fill="#4A3645"/>
<rect x="146.908" y="104.006" width="0.412523" height="9.07551" transform="rotate(90 146.908 104.006)" fill="#4A3645"/>
<rect x="146.908" y="95.1367" width="0.412523" height="9.07551" transform="rotate(90 146.908 95.1367)" fill="#4A3645"/>
<rect x="123.704" y="99.3652" width="0.412523" height="1.44383" transform="rotate(90 123.704 99.3652)" fill="#4A3645"/>
<rect x="152.477" y="104.006" width="0.412523" height="1.44383" transform="rotate(90 152.477 104.006)" fill="#4A3645"/>
<rect x="183.107" y="99.3652" width="0.412523" height="1.44383" transform="rotate(90 183.107 99.3652)" fill="#4A3645"/>
<rect x="215.284" y="99.3652" width="0.412523" height="3.09392" transform="rotate(90 215.284 99.3652)" fill="#4A3645"/>
<rect x="121.744" y="90.5991" width="0.412523" height="6.60037" transform="rotate(90 121.744 90.5991)" fill="#4A3645"/>
<rect x="157.118" y="61.0005" width="0.412523" height="8.86925" transform="rotate(90 157.118 61.0005)" fill="#4A3645"/>
<rect x="148.661" y="61.3101" width="0.412523" height="13.3039" transform="rotate(-180 148.661 61.3101)" fill="#4A3645"/>
<rect x="157.118" y="61.3101" width="0.412523" height="13.3039" transform="rotate(-180 157.118 61.3101)" fill="#4A3645"/>
<rect x="157.118" y="48.0059" width="0.412523" height="8.86925" transform="rotate(90 157.118 48.0059)" fill="#4A3645"/>
<rect x="100.705" y="95.1367" width="0.412523" height="8.76611" transform="rotate(90 100.705 95.1367)" fill="#4A3645"/>
<rect x="100.705" y="86.1646" width="0.412523" height="8.76611" transform="rotate(90 100.705 86.1646)" fill="#4A3645"/>
<rect x="85.6484" y="89.3613" width="0.412523" height="8.97238" transform="rotate(90 85.6484 89.3613)" fill="#4A3645"/>
<rect x="76.6758" y="88.4331" width="0.412523" height="6.90976" transform="rotate(90 76.6758 88.4331)" fill="#4A3645"/>
<rect x="65.3315" y="88.4331" width="0.412523" height="3.81584" transform="rotate(90 65.3315 88.4331)" fill="#4A3645"/>
<rect x="85.6484" y="99.8809" width="0.412523" height="8.97238" transform="rotate(90 85.6484 99.8809)" fill="#4A3645"/>
<rect x="85.6484" y="102.046" width="0.412523" height="6.29098" transform="rotate(-180 85.6484 102.046)" fill="#4A3645"/>
<rect x="85.6484" y="91.5273" width="0.412523" height="4.0221" transform="rotate(-180 85.6484 91.5273)" fill="#4A3645"/>
<rect x="100.705" y="88.9487" width="0.412523" height="2.78453" transform="rotate(-180 100.705 88.9487)" fill="#4A3645"/>
<rect x="100.705" y="96.7866" width="0.412523" height="3.60958" transform="rotate(-180 100.705 96.7866)" fill="#4A3645"/>
<rect x="100.705" y="104.521" width="0.412523" height="3.60958" transform="rotate(-180 100.705 104.521)" fill="#4A3645"/>
<rect x="85.6484" y="83.2769" width="0.412523" height="4.33149" transform="rotate(-180 85.6484 83.2769)" fill="#4A3645"/>
<rect x="128.757" y="90.3926" width="0.412523" height="4.33149" transform="rotate(-180 128.757 90.3926)" fill="#4A3645"/>
<rect x="128.757" y="99.3652" width="0.412523" height="4.95028" transform="rotate(-180 128.757 99.3652)" fill="#4A3645"/>
<rect x="146.496" y="88.9487" width="0.412523" height="2.57827" transform="rotate(-180 146.496 88.9487)" fill="#4A3645"/>
<rect x="146.496" y="96.7866" width="0.412523" height="3.60958" transform="rotate(-180 146.496 96.7866)" fill="#4A3645"/>
<rect x="146.496" y="104.418" width="0.412523" height="3.50645" transform="rotate(-180 146.496 104.418)" fill="#4A3645"/>
<rect x="159.284" y="99.3652" width="0.412523" height="4.84715" transform="rotate(-180 159.284 99.3652)" fill="#4A3645"/>
<rect x="159.284" y="90.1865" width="0.412523" height="4.0221" transform="rotate(-180 159.284 90.1865)" fill="#4A3645"/>
<rect x="177.022" y="90.1865" width="0.412523" height="4.0221" transform="rotate(-180 177.022 90.1865)" fill="#4A3645"/>
<rect x="177.022" y="99.3652" width="0.412523" height="4.95028" transform="rotate(-180 177.022 99.3652)" fill="#4A3645"/>
<rect x="207.549" y="99.3652" width="0.412523" height="4.95028" transform="rotate(-180 207.549 99.3652)" fill="#4A3645"/>
<rect x="207.549" y="90.2896" width="0.412523" height="4.12523" transform="rotate(-180 207.549 90.2896)" fill="#4A3645"/>
<rect x="189.914" y="100.706" width="0.412523" height="7.11602" transform="rotate(-180 189.914 100.706)" fill="#4A3645"/>
<rect x="189.914" y="110.503" width="0.412523" height="5.67219" transform="rotate(-180 189.914 110.503)" fill="#4A3645"/>
<rect x="220.337" y="99.5713" width="0.412523" height="7.52855" transform="rotate(-180 220.337 99.5713)" fill="#4A3645"/>
<rect x="220.337" y="87.9175" width="0.412523" height="4.84715" transform="rotate(-180 220.337 87.9175)" fill="#4A3645"/>
<rect x="220.337" y="67.0854" width="0.412523" height="8.76611" transform="rotate(-180 220.337 67.0854)" fill="#4A3645"/>
<rect x="220.337" y="54.0908" width="0.412523" height="4.12523" transform="rotate(-180 220.337 54.0908)" fill="#4A3645"/>
<rect x="220.337" y="45.8403" width="0.412523" height="6.08471" transform="rotate(-180 220.337 45.8403)" fill="#4A3645"/>
<rect x="207.549" y="45.2217" width="0.412523" height="3.19705" transform="rotate(-180 207.549 45.2217)" fill="#4A3645"/>
<rect x="189.811" y="45.2217" width="0.412523" height="3.19705" transform="rotate(-180 189.811 45.2217)" fill="#4A3645"/>
<rect x="189.811" y="60.0723" width="0.412523" height="3.19705" transform="rotate(-180 189.811 60.0723)" fill="#4A3645"/>
<rect x="207.549" y="60.0723" width="0.412523" height="3.19705" transform="rotate(-180 207.549 60.0723)" fill="#4A3645"/>
<rect x="207.549" y="52.853" width="0.412523" height="3.50645" transform="rotate(-180 207.549 52.853)" fill="#4A3645"/>
<rect x="189.811" y="52.853" width="0.412523" height="3.50645" transform="rotate(-180 189.811 52.853)" fill="#4A3645"/>
<rect x="220.337" y="79.564" width="0.412523" height="5.56906" transform="rotate(-180 220.337 79.564)" fill="#4A3645"/>
<rect x="189.914" y="89.3613" width="0.412523" height="3.19705" transform="rotate(-180 189.914 89.3613)" fill="#4A3645"/>
<rect x="85.6484" y="111.328" width="0.412523" height="5.15654" transform="rotate(-180 85.6484 111.328)" fill="#4A3645"/>
<rect x="101.118" y="104.109" width="0.412523" height="9.17864" transform="rotate(90 101.118 104.109)" fill="#4A3645"/>
<rect x="106.48" y="104.109" width="0.412523" height="1.3407" transform="rotate(90 106.48 104.109)" fill="#4A3645"/>
<rect x="110.812" y="90.5991" width="0.412523" height="4.33149" transform="rotate(90 110.812 90.5991)" fill="#4A3645"/>
<rect x="228.381" y="99.4683" width="0.412523" height="8.86925" transform="rotate(90 228.381 99.4683)" fill="#4A3645"/>
<rect x="228.381" y="73.5825" width="0.412523" height="8.55985" transform="rotate(90 228.381 73.5825)" fill="#4A3645"/>
<rect x="198.577" y="86.1646" width="0.412523" height="8.66298" transform="rotate(90 198.577 86.1646)" fill="#4A3645"/>
<rect x="207.549" y="41.7148" width="0.412524" height="18.6667" transform="rotate(90 207.549 41.7148)" fill="#4A3645"/>
<rect x="184.757" y="41.7148" width="0.412523" height="1.23757" transform="rotate(90 184.757 41.7148)" fill="#4A3645"/>
<rect x="141.545" y="67.1885" width="0.825047" height="13.6133" transform="rotate(90 141.545 67.1885)" fill="#4A3645"/>
<rect x="93.0737" y="67.1885" width="0.825046" height="1.13444" transform="rotate(90 93.0737 67.1885)" fill="#4A3645"/>
<rect x="70.1787" y="78.2231" width="0.825046" height="9.07551" transform="rotate(90 70.1787 78.2231)" fill="#4A3645"/>
<rect x="198.061" y="64.1978" width="0.825046" height="5.15654" fill="#4A3645"/>
<rect x="182.694" y="64.1978" width="0.825046" height="5.15654" fill="#4A3645"/>
<rect x="176.506" y="57.5972" width="0.825046" height="3.91897" fill="#4A3645"/>
<rect width="0.412523" height="3.91897" transform="matrix(-1 0 0 1 128.139 56.772)" fill="#4A3645"/>
<rect x="176.506" y="49.4497" width="0.825046" height="3.91897" fill="#4A3645"/>
<rect width="0.412523" height="3.91897" transform="matrix(-1 0 0 1 128.139 49.1406)" fill="#4A3645"/>
<rect width="0.412523" height="3.91897" transform="matrix(-1 0 0 1 98.5396 50.1719)" fill="#4A3645"/>
<rect width="0.412523" height="3.91897" transform="matrix(-1 0 0 1 98.5396 41.9214)" fill="#4A3645"/>
<rect width="0.412523" height="3.30018" transform="matrix(-1 0 0 1 115.969 41.9214)" fill="#4A3645"/>
<rect width="0.412523" height="3.50645" transform="matrix(-1 0 0 1 115.969 49.3467)" fill="#4A3645"/>
<rect width="0.412523" height="2.99079" transform="matrix(-1 0 0 1 115.969 57.0815)" fill="#4A3645"/>
<rect width="0.412523" height="1.75322" transform="matrix(-1 0 0 1 128.139 43.5713)" fill="#4A3645"/>
<rect x="176.506" y="43.4683" width="0.825046" height="1.95948" fill="#4A3645"/>
<rect x="176.506" y="65.7446" width="0.825046" height="2.26888" fill="#4A3645"/>
<rect x="163.203" y="39.0337" width="0.825046" height="30.3204" fill="#4A3645"/>
<rect x="182.694" y="35.0117" width="0.825046" height="25.0608" fill="#4A3645"/>
<rect x="198.061" y="35.0117" width="0.825046" height="25.0608" fill="#4A3645"/>
<rect x="213.324" y="35.0117" width="0.825046" height="25.0608" fill="#4A3645"/>
<rect x="213.324" y="27.5864" width="0.825046" height="25.0608" fill="#4A3645"/>
<rect x="141.235" y="39.0337" width="0.825046" height="32.6924" fill="#4A3645"/>
<rect x="121.641" y="34.9082" width="0.825046" height="25.1639" fill="#4A3645"/>
<rect x="106.377" y="34.9082" width="0.825046" height="25.1639" fill="#4A3645"/>
<rect x="121.641" y="64.1978" width="0.825046" height="3.81584" fill="#4A3645"/>
<rect x="106.48" y="64.1978" width="0.825046" height="3.81584" fill="#4A3645"/>
<rect x="127.726" y="64.1978" width="0.825046" height="3.81584" fill="#4A3645"/>
<rect x="182.694" y="76.6763" width="0.825046" height="5.3628" fill="#4A3645"/>
<rect x="141.235" y="76.6763" width="0.825046" height="2.37201" fill="#4A3645"/>
<rect x="75.8506" y="78.2231" width="0.825046" height="36.302" fill="#4A3645"/>
<rect x="121.641" y="78.2231" width="0.825046" height="28.8766" fill="#4A3645"/>
<rect x="137.11" y="86.1646" width="0.825046" height="25.1639" fill="#4A3645"/>
<rect x="167.431" y="86.1646" width="0.825046" height="25.1639" fill="#4A3645"/>
<rect x="198.061" y="86.1646" width="0.825046" height="25.1639" fill="#4A3645"/>
<rect x="152.374" y="86.1646" width="0.825046" height="25.1639" fill="#4A3645"/>
<rect x="182.694" y="86.1646" width="0.825046" height="25.1639" fill="#4A3645"/>
<rect x="213.324" y="86.1646" width="0.825046" height="25.1639" fill="#4A3645"/>
<rect x="228.175" y="39.0337" width="0.825046" height="72.2947" fill="#4A3645"/>
<rect x="106.377" y="86.1646" width="0.825046" height="25.1639" fill="#4A3645"/>
<rect x="91.2173" y="86.1646" width="0.825046" height="25.1639" fill="#4A3645"/>
<path d="M101.943 102.253L105.14 104.109" stroke="#4A3645"/>
<path d="M147.733 102.253L150.93 104.109" stroke="#4A3645"/>
<path d="M178.363 97.5088L181.56 99.3651" stroke="#4A3645"/>
<path d="M155.158 97.5088L158.355 99.3651" stroke="#4A3645"/>
<path d="M209.096 97.5088L212.293 99.3651" stroke="#4A3645"/>
<path d="M218.48 97.5088L215.283 99.3651" stroke="#4A3645"/>
<path d="M186.407 102.975L189.604 104.831" stroke="#4A3645"/>
<path d="M186.407 91.7334L189.604 93.5898" stroke="#4A3645"/>
<path d="M100.705 96.8901L103.902 98.7465" stroke="#4A3645"/>
<path d="M146.496 96.7866L149.693 98.643" stroke="#4A3645"/>
<path d="M176.919 90.1865L180.116 92.0429" stroke="#4A3645"/>
<path d="M220.027 87.8145L216.83 89.6708" stroke="#4A3645"/>
<path d="M220.027 79.564L216.83 81.4203" stroke="#4A3645"/>
<path d="M220.027 54.0908L216.83 55.9472" stroke="#4A3645"/>
<path d="M220.027 45.9434L216.83 47.7997" stroke="#4A3645"/>
<path d="M210.746 47.4902L207.549 49.3466" stroke="#4A3645"/>
<path d="M186.201 54.7095L189.398 52.8531" stroke="#4A3645"/>
<path d="M210.746 55.019L207.549 56.8754" stroke="#4A3645"/>
<path d="M186.201 47.4902L189.398 49.3466" stroke="#4A3645"/>
<path d="M207.445 33.2583L210.642 35.1147" stroke="#4A3645"/>
<path d="M184.757 42.0244L187.954 43.8808" stroke="#4A3645"/>
<path d="M177.332 45.4277L180.529 47.2841" stroke="#4A3645"/>
<path d="M177.332 53.3687L180.529 55.225" stroke="#4A3645"/>
<path d="M177.332 61.5161L180.529 63.3725" stroke="#4A3645"/>
<path d="M127.726 60.6909L124.529 62.5473" stroke="#4A3645"/>
<path d="M127.726 53.0596L124.529 54.9159" stroke="#4A3645"/>
<path d="M127.726 45.3247L124.529 47.1811" stroke="#4A3645"/>
<path d="M119.166 47.4902L115.969 49.3466" stroke="#4A3645"/>
<path d="M120.61 42.1274L117.413 43.9838" stroke="#4A3645"/>
<path d="M115.969 52.853L119.166 54.7094" stroke="#4A3645"/>
<path d="M94.9297 48.4185L98.1267 50.2748" stroke="#4A3645"/>
<path d="M92.0425 56.2563L95.2395 58.1127" stroke="#4A3645"/>
<path d="M100.396 33.2583L103.593 35.1147" stroke="#4A3645"/>
<path d="M207.549 90.1865L210.746 92.0429" stroke="#4A3645"/>
<path d="M103.902 91.3208L100.705 93.1772" stroke="#4A3645"/>
<path d="M149.692 91.3208L146.495 93.1772" stroke="#4A3645"/>
<path d="M156.396 84.1016L153.199 85.9579" stroke="#4A3645"/>
<path d="M145.258 74.5107L142.061 76.3671" stroke="#4A3645"/>
<path d="M152.665 49.1362L152.629 60.1335" stroke="#4A3645" stroke-width="0.5"/>
<path d="M126.9 97.5088L123.703 99.3651" stroke="#4A3645"/>
<path d="M128.448 90.3926L125.251 92.2489" stroke="#4A3645"/>
<path d="M113.906 88.7427L110.709 90.599" stroke="#4A3645"/>
<path d="M88.8457 104.212L85.6486 106.069" stroke="#4A3645"/>
<path d="M88.8457 93.7959L85.6486 95.6523" stroke="#4A3645"/>
<path d="M68.6313 86.5771L65.4343 88.4335" stroke="#4A3645"/>
<path d="M88.8457 85.5459L85.6486 87.4023" stroke="#4A3645"/>
</svg>
