<svg width="291" height="135" viewBox="0 0 291 135" fill="none" xmlns="http://www.w3.org/2000/svg">
<rect width="291" height="135" fill="white"/>
<path d="M122.391 54.0806L121.952 53.6914M121.952 53.6914L122.391 53.3023M121.952 53.6914L136.698 53.6914" stroke="#594D56" stroke-width="0.5" stroke-linecap="round" stroke-linejoin="round"/>
<path d="M136.259 49.104L136.698 49.4931M136.698 49.4931L136.259 49.8823M136.698 49.4931L121.952 49.4931" stroke="#594D56" stroke-width="0.5" stroke-linecap="round" stroke-linejoin="round"/>
<path d="M186.098 114.447L183.702 113.157" stroke="#4A3645" stroke-width="0.5"/>
<path d="M182.209 111.199L182.648 111.588M182.648 111.588L182.209 111.977M182.648 111.588H177.665" stroke="#594D56" stroke-width="0.5" stroke-linecap="round" stroke-linejoin="round"/>
<path d="M173.08 113.378L172.641 112.989M172.641 112.989L173.08 112.6M172.641 112.989L177.71 112.989" stroke="#594D56" stroke-width="0.5" stroke-linecap="round" stroke-linejoin="round"/>
<path d="M114.931 109.632L115.37 110.021M115.37 110.021L114.931 110.411M115.37 110.021H110.386" stroke="#594D56" stroke-width="0.5" stroke-linecap="round" stroke-linejoin="round"/>
<path d="M105.802 111.812L105.363 111.422M105.363 111.422L105.802 111.033M105.363 111.422L110.432 111.422" stroke="#594D56" stroke-width="0.5" stroke-linecap="round" stroke-linejoin="round"/>
<path d="M143.87 42.0996L144.309 42.5604M144.309 42.5604L143.87 43.0212M144.309 42.5604H139.325" stroke="#594D56" stroke-width="0.5" stroke-linecap="round" stroke-linejoin="round"/>
<path d="M134.741 44.6802L134.302 44.2194M134.302 44.2194L134.741 43.7585M134.302 44.2194L139.371 44.2194" stroke="#594D56" stroke-width="0.5" stroke-linecap="round" stroke-linejoin="round"/>
<rect x="199.83" y="20.3491" width="1.10595" height="88.8448" fill="#4A3645"/>
<rect x="90.064" y="45.4175" width="1.10595" height="63.7765" fill="#4A3645"/>
<rect x="123.704" y="108.088" width="1.10595" height="33.6394" transform="rotate(90 123.704 108.088)" fill="#4A3645"/>
<rect x="118.358" y="112.512" width="1.10595" height="18.709" transform="rotate(90 118.358 112.512)" fill="#4A3645"/>
<rect x="128.588" y="112.512" width="1.10595" height="10.2301" transform="rotate(90 128.588 112.512)" fill="#4A3645"/>
<rect x="183.425" y="113.986" width="0.460814" height="15.0225" transform="rotate(90 183.425 113.986)" fill="#4A3645"/>
<rect x="188.678" y="113.986" width="0.460813" height="2.67272" transform="rotate(90 188.678 113.986)" fill="#4A3645"/>
<rect x="199.83" y="108.088" width="1.10595" height="32.3491" transform="rotate(90 199.83 108.088)" fill="#4A3645"/>
<rect x="188.678" y="109.562" width="1.10595" height="21.1974" transform="rotate(90 188.678 109.562)" fill="#4A3645"/>
<rect x="168.587" y="114.447" width="1.10595" height="4.88462" transform="rotate(-180 168.587 114.447)" fill="#4A3645"/>
<rect x="129.694" y="114.447" width="1.10595" height="8.84761" transform="rotate(-180 129.694 114.447)" fill="#4A3645"/>
<rect x="123.98" y="72.8818" width="1.10595" height="3.77867" transform="rotate(-180 123.98 72.8818)" fill="#4A3645"/>
<rect x="108.036" y="96.3833" width="1.10595" height="3.77867" transform="rotate(-180 108.036 96.3833)" fill="#4A3645"/>
<rect x="124.072" y="96.3833" width="1.10595" height="3.77867" transform="rotate(-180 124.072 96.3833)" fill="#4A3645"/>
<rect x="129.694" y="96.3833" width="1.10595" height="3.77867" transform="rotate(-180 129.694 96.3833)" fill="#4A3645"/>
<rect x="139.463" y="96.3833" width="1.10595" height="3.77867" transform="rotate(-180 139.463 96.3833)" fill="#4A3645"/>
<rect x="145.362" y="115" width="0.368651" height="6.45138" transform="rotate(-180 145.362 115)" fill="#4A3645"/>
<rect x="154.209" y="115" width="0.368651" height="6.45138" transform="rotate(-180 154.209 115)" fill="#4A3645"/>
<rect x="161.582" y="115" width="0.368651" height="6.45138" transform="rotate(-180 161.582 115)" fill="#4A3645"/>
<rect x="138.726" y="115" width="0.368651" height="6.45138" transform="rotate(-180 138.726 115)" fill="#4A3645"/>
<rect x="174.116" y="30.1187" width="0.368651" height="6.72787" transform="rotate(-180 174.116 30.1187)" fill="#4A3645"/>
<rect x="174.116" y="30.1187" width="0.36865" height="5.80624" transform="rotate(-90 174.116 30.1187)" fill="#4A3645"/>
<rect x="182.596" y="30.1187" width="0.36865" height="8.75545" transform="rotate(-90 182.596 30.1187)" fill="#4A3645"/>
<rect x="194.023" y="30.1187" width="0.36865" height="6.45138" transform="rotate(-90 194.023 30.1187)" fill="#4A3645"/>
<rect x="186.374" y="30.1187" width="0.368651" height="8.84761" transform="rotate(-180 186.374 30.1187)" fill="#4A3645"/>
<rect x="128.588" y="108.549" width="0.36865" height="4.88462" transform="rotate(-90 128.588 108.549)" fill="#4A3645"/>
<rect x="131.168" y="105.6" width="0.460813" height="1.56676" transform="rotate(-90 131.168 105.6)" fill="#4A3645"/>
<rect x="116.423" y="105.6" width="0.460813" height="1.56676" transform="rotate(-90 116.423 105.6)" fill="#4A3645"/>
<rect x="108.497" y="105.6" width="0.460813" height="1.56676" transform="rotate(-90 108.497 105.6)" fill="#4A3645"/>
<rect x="100.202" y="105.6" width="0.460813" height="1.56676" transform="rotate(-90 100.202 105.6)" fill="#4A3645"/>
<rect x="139.832" y="105.6" width="0.460813" height="1.56676" transform="rotate(-90 139.832 105.6)" fill="#4A3645"/>
<rect x="147.574" y="105.6" width="0.460813" height="1.56676" transform="rotate(-90 147.574 105.6)" fill="#4A3645"/>
<rect x="154.947" y="105.6" width="0.460813" height="1.56676" transform="rotate(-90 154.947 105.6)" fill="#4A3645"/>
<rect x="162.688" y="105.6" width="0.460813" height="1.56676" transform="rotate(-90 162.688 105.6)" fill="#4A3645"/>
<rect x="170.43" y="105.6" width="0.460813" height="1.56676" transform="rotate(-90 170.43 105.6)" fill="#4A3645"/>
<rect x="177.803" y="105.6" width="0.460813" height="1.56676" transform="rotate(-90 177.803 105.6)" fill="#4A3645"/>
<rect x="185.268" y="105.6" width="0.460813" height="1.56676" transform="rotate(-90 185.268 105.6)" fill="#4A3645"/>
<rect x="193.471" y="105.6" width="0.460813" height="1.56676" transform="rotate(-90 193.471 105.6)" fill="#4A3645"/>
<rect x="135.5" y="105.6" width="0.460813" height="1.56676" transform="rotate(-90 135.5 105.6)" fill="#4A3645"/>
<rect x="120.754" y="105.6" width="0.460813" height="1.56676" transform="rotate(-90 120.754 105.6)" fill="#4A3645"/>
<rect x="112.829" y="105.6" width="0.460813" height="1.56676" transform="rotate(-90 112.829 105.6)" fill="#4A3645"/>
<rect x="104.534" y="105.6" width="0.460813" height="1.56676" transform="rotate(-90 104.534 105.6)" fill="#4A3645"/>
<rect x="92.1841" y="105.6" width="0.460813" height="1.56676" transform="rotate(-90 92.1841 105.6)" fill="#4A3645"/>
<rect x="96.5156" y="105.6" width="0.460813" height="1.56676" transform="rotate(-90 96.5156 105.6)" fill="#4A3645"/>
<rect x="92.1841" y="60.2559" width="0.460813" height="1.56676" transform="rotate(-90 92.1841 60.2559)" fill="#4A3645"/>
<rect x="96.5156" y="60.2559" width="0.460813" height="1.56676" transform="rotate(-90 96.5156 60.2559)" fill="#4A3645"/>
<rect x="100.663" y="60.2559" width="0.460813" height="1.56676" transform="rotate(-90 100.663 60.2559)" fill="#4A3645"/>
<rect x="104.995" y="60.2559" width="0.460813" height="1.56676" transform="rotate(-90 104.995 60.2559)" fill="#4A3645"/>
<rect x="116.054" y="60.2559" width="0.460813" height="1.56676" transform="rotate(-90 116.054 60.2559)" fill="#4A3645"/>
<rect x="120.386" y="60.2559" width="0.460813" height="1.56676" transform="rotate(-90 120.386 60.2559)" fill="#4A3645"/>
<rect x="124.625" y="60.2559" width="0.460813" height="1.56676" transform="rotate(-90 124.625 60.2559)" fill="#4A3645"/>
<rect x="128.957" y="60.2559" width="0.460813" height="1.56676" transform="rotate(-90 128.957 60.2559)" fill="#4A3645"/>
<rect x="132.367" y="60.2559" width="0.460813" height="1.56676" transform="rotate(-90 132.367 60.2559)" fill="#4A3645"/>
<rect x="136.698" y="60.2559" width="0.460813" height="1.56676" transform="rotate(-90 136.698 60.2559)" fill="#4A3645"/>
<rect x="139.924" y="60.2559" width="0.460813" height="1.56676" transform="rotate(-90 139.924 60.2559)" fill="#4A3645"/>
<rect x="144.256" y="60.2559" width="0.460813" height="1.56676" transform="rotate(-90 144.256 60.2559)" fill="#4A3645"/>
<rect x="147.758" y="60.2559" width="0.460813" height="1.56676" transform="rotate(-90 147.758 60.2559)" fill="#4A3645"/>
<rect x="152.09" y="60.2559" width="0.460813" height="1.56676" transform="rotate(-90 152.09 60.2559)" fill="#4A3645"/>
<rect x="155.315" y="60.2559" width="0.460813" height="1.56676" transform="rotate(-90 155.315 60.2559)" fill="#4A3645"/>
<rect x="159.647" y="60.2559" width="0.460813" height="1.56676" transform="rotate(-90 159.647 60.2559)" fill="#4A3645"/>
<rect x="196.696" y="33.897" width="0.460813" height="1.56676" fill="#4A3645"/>
<rect x="196.696" y="38.2285" width="0.460813" height="1.56676" fill="#4A3645"/>
<rect x="196.696" y="42.0073" width="0.460813" height="1.56676" fill="#4A3645"/>
<rect x="196.696" y="46.3389" width="0.460813" height="1.56676" fill="#4A3645"/>
<rect x="196.696" y="50.1177" width="0.460813" height="1.56676" fill="#4A3645"/>
<rect x="196.696" y="54.4492" width="0.460813" height="1.56676" fill="#4A3645"/>
<rect x="196.696" y="58.228" width="0.460813" height="1.56676" fill="#4A3645"/>
<rect x="196.696" y="62.5596" width="0.460813" height="1.56676" fill="#4A3645"/>
<rect x="196.696" y="65.8774" width="0.460813" height="1.56676" fill="#4A3645"/>
<rect x="196.696" y="70.209" width="0.460813" height="1.56676" fill="#4A3645"/>
<rect x="136.146" y="31.1323" width="0.460813" height="1.56676" fill="#4A3645"/>
<rect x="136.146" y="35.1875" width="0.460813" height="1.56676" fill="#4A3645"/>
<rect x="144.164" y="105.6" width="0.460813" height="1.56676" transform="rotate(-90 144.164 105.6)" fill="#4A3645"/>
<rect x="151.905" y="105.6" width="0.460813" height="1.56676" transform="rotate(-90 151.905 105.6)" fill="#4A3645"/>
<rect x="159.278" y="105.6" width="0.460813" height="1.56676" transform="rotate(-90 159.278 105.6)" fill="#4A3645"/>
<rect x="167.02" y="105.6" width="0.460813" height="1.56676" transform="rotate(-90 167.02 105.6)" fill="#4A3645"/>
<rect x="174.762" y="105.6" width="0.460813" height="1.56676" transform="rotate(-90 174.762 105.6)" fill="#4A3645"/>
<rect x="182.135" y="105.6" width="0.460813" height="1.56676" transform="rotate(-90 182.135 105.6)" fill="#4A3645"/>
<rect x="189.6" y="105.6" width="0.460813" height="1.56676" transform="rotate(-90 189.6 105.6)" fill="#4A3645"/>
<rect x="197.802" y="105.6" width="0.460813" height="1.56676" transform="rotate(-90 197.802 105.6)" fill="#4A3645"/>
<rect x="136.053" y="108.549" width="0.36865" height="4.88462" transform="rotate(-90 136.053 108.549)" fill="#4A3645"/>
<rect x="143.519" y="108.549" width="0.36865" height="5.06894" transform="rotate(-90 143.519 108.549)" fill="#4A3645"/>
<rect x="151.168" y="108.549" width="0.36865" height="5.89841" transform="rotate(-90 151.168 108.549)" fill="#4A3645"/>
<rect x="159.739" y="108.549" width="0.36865" height="4.05516" transform="rotate(-90 159.739 108.549)" fill="#4A3645"/>
<rect x="166.375" y="108.549" width="0.36865" height="4.05516" transform="rotate(-90 166.375 108.549)" fill="#4A3645"/>
<rect x="139.463" y="111.867" width="1.10595" height="3.77867" transform="rotate(-180 139.463 111.867)" fill="#4A3645"/>
<rect x="162.319" y="111.867" width="1.10595" height="3.77867" transform="rotate(-180 162.319 111.867)" fill="#4A3645"/>
<rect x="168.402" y="109.47" width="1.10595" height="1.38244" transform="rotate(-180 168.402 109.47)" fill="#4A3645"/>
<rect x="162.319" y="96.3833" width="1.10595" height="3.77867" transform="rotate(-180 162.319 96.3833)" fill="#4A3645"/>
<rect x="185.084" y="96.3833" width="1.10595" height="3.77867" transform="rotate(-180 185.084 96.3833)" fill="#4A3645"/>
<rect x="110.155" y="56.6611" width="1.10595" height="3.77867" transform="rotate(45 110.155 56.6611)" fill="#4A3645"/>
<rect x="121.768" y="45.9702" width="1.10595" height="4.51597" transform="rotate(-180 121.768 45.9702)" fill="#4A3645"/>
<rect x="133.841" y="40.625" width="1.10595" height="10.2301" transform="rotate(-180 133.841 40.625)" fill="#4A3645"/>
<rect x="174.393" y="25.3262" width="1.10595" height="4.97678" transform="rotate(-180 174.393 25.3262)" fill="#4A3645"/>
<path d="M167.371 30.3843L166.724 29.4871L173.743 24.4286L174.389 25.3258L167.371 30.3843Z" fill="#4A3645"/>
<rect x="108.589" y="72.8818" width="1.10595" height="13.4557" transform="rotate(-180 108.589 72.8818)" fill="#4A3645"/>
<rect x="110.156" y="57.7671" width="1.10595" height="52.164" transform="rotate(-90 110.156 57.7671)" fill="#4A3645"/>
<rect x="91.1699" y="57.2144" width="0.552975" height="19.7228" transform="rotate(-90 91.1699 57.2144)" fill="#4A3645"/>
<rect x="91.1699" y="46.5234" width="1.10595" height="56.4957" transform="rotate(-90 91.1699 46.5234)" fill="#4A3645"/>
<rect x="120.662" y="41.4546" width="1.10595" height="27.0036" transform="rotate(-90 120.662 41.4546)" fill="#4A3645"/>
<rect x="173.932" y="21.4551" width="1.10595" height="27.0036" transform="rotate(-90 173.932 21.4551)" fill="#4A3645"/>
<rect x="132.735" y="30.395" width="1.10595" height="34.6531" transform="rotate(-90 132.735 30.395)" fill="#4A3645"/>
<rect x="162.319" y="72.8818" width="1.10595" height="3.77867" transform="rotate(-180 162.319 72.8818)" fill="#4A3645"/>
<rect x="184.3" y="72.8818" width="1.10595" height="3.77867" transform="rotate(-90 184.3 72.8818)" fill="#4A3645"/>
<rect x="184.3" y="57.3984" width="1.10595" height="3.77867" transform="rotate(-90 184.3 57.3984)" fill="#4A3645"/>
<rect x="184.3" y="41.4546" width="1.10595" height="3.77867" transform="rotate(-90 184.3 41.4546)" fill="#4A3645"/>
<rect x="157.988" y="41.4546" width="1.10595" height="3.77867" transform="rotate(-90 157.988 41.4546)" fill="#4A3645"/>
<rect x="139.463" y="72.8818" width="1.10595" height="3.77867" transform="rotate(-180 139.463 72.8818)" fill="#4A3645"/>
<rect x="124.072" y="109.194" width="1.10595" height="3.59434" transform="rotate(-180 124.072 109.194)" fill="#4A3645"/>
<rect x="100.755" y="112.88" width="1.10595" height="3.6865" transform="rotate(-180 100.755 112.88)" fill="#4A3645"/>
<rect x="127.851" y="106.89" width="1.10595" height="1.84325" transform="rotate(-90 127.851 106.89)" fill="#4A3645"/>
<rect x="188.678" y="114.447" width="1.10595" height="4.88462" transform="rotate(-180 188.678 114.447)" fill="#4A3645"/>
<path d="M182.411 29.9341L180.383 31.04" stroke="#4A3645" stroke-width="0.5"/>
<path d="M146.191 42.8366L147.671 45.3612" stroke="#4A3645" stroke-width="0.5"/>
<path d="M147.671 41.362L147.113 42.3758" stroke="#4A3645" stroke-width="0.5"/>
<path d="M193.747 29.9341L191.719 31.04" stroke="#4A3645" stroke-width="0.5"/>
<path d="M99.3726 57.5366V72.7895" stroke="#4A3645" stroke-width="0.5" stroke-dasharray="10 10"/>
<path d="M99.3726 92.6045V108.088" stroke="#4A3645" stroke-width="0.5" stroke-dasharray="10 10"/>
<path d="M107.483 92.6968V108.18" stroke="#4A3645" stroke-width="0.5" stroke-dasharray="10 10"/>
<path d="M115.409 92.6045V108.088" stroke="#4A3645" stroke-width="0.5" stroke-dasharray="10 10"/>
<path d="M122.966 92.6045V108.088" stroke="#4A3645" stroke-width="0.5" stroke-dasharray="10 10"/>
<path d="M129.141 92.6045V108.088" stroke="#4A3645" stroke-width="0.5" stroke-dasharray="10 10"/>
<path d="M138.911 92.6045V108.088" stroke="#4A3645" stroke-width="0.5" stroke-dasharray="10 10"/>
<path d="M146.56 92.6045V108.088" stroke="#4A3645" stroke-width="0.5" stroke-dasharray="10 10"/>
<path d="M154.025 92.6045V108.088" stroke="#4A3645" stroke-width="0.5" stroke-dasharray="10 10"/>
<path d="M161.767 92.6045V108.088" stroke="#4A3645" stroke-width="0.5" stroke-dasharray="10 10"/>
<path d="M169.417 92.6045V108.088" stroke="#4A3645" stroke-width="0.5" stroke-dasharray="10 10"/>
<path d="M176.974 92.6045V108.088" stroke="#4A3645" stroke-width="0.5" stroke-dasharray="10 10"/>
<path d="M184.531 92.6045V108.088" stroke="#4A3645" stroke-width="0.5" stroke-dasharray="10 10"/>
<path d="M192.457 92.6045V108.088" stroke="#4A3645" stroke-width="0.5" stroke-dasharray="10 10"/>
<path d="M184.347 33.252L184.347 72.7897" stroke="#4A3645" stroke-width="0.5" stroke-dasharray="10 10"/>
<path d="M149.232 30.395L149.232 37.4915" stroke="#4A3645" stroke-width="0.5" stroke-dasharray="10 10"/>
<path d="M114.395 57.5366V72.7895" stroke="#4A3645" stroke-width="0.5" stroke-dasharray="10 10"/>
<path d="M123.427 57.5366V72.7895" stroke="#4A3645" stroke-width="0.5" stroke-dasharray="10 10"/>
<path d="M131.353 57.5366V72.7895" stroke="#4A3645" stroke-width="0.5" stroke-dasharray="10 10"/>
<path d="M138.911 57.5366V72.7895" stroke="#4A3645" stroke-width="0.5" stroke-dasharray="10 10"/>
<path d="M146.836 57.5366V72.7895" stroke="#4A3645" stroke-width="0.5" stroke-dasharray="10 10"/>
<path d="M154.302 57.5366V72.7895" stroke="#4A3645" stroke-width="0.5" stroke-dasharray="10 10"/>
<path d="M161.767 57.5366V72.7895" stroke="#4A3645" stroke-width="0.5" stroke-dasharray="10 10"/>
<path d="M107.483 72.7896H91.2623" stroke="#4A3645" stroke-width="0.5" stroke-dasharray="10 10"/>
<path d="M199.83 72.3291H186.19" stroke="#4A3645" stroke-width="0.5" stroke-dasharray="10 10"/>
<path d="M199.83 56.8457H186.19" stroke="#4A3645" stroke-width="0.5" stroke-dasharray="10 10"/>
<path d="M199.83 64.7715H184.531" stroke="#4A3645" stroke-width="0.5" stroke-dasharray="10 10"/>
<path d="M199.83 49.104H184.347" stroke="#4A3645" stroke-width="0.5" stroke-dasharray="10 10"/>
<path d="M199.83 40.9014H184.347" stroke="#4A3645" stroke-width="0.5" stroke-dasharray="10 10"/>
<path d="M149.14 37.4912H133.657" stroke="#4A3645" stroke-width="0.5" stroke-dasharray="10 10"/>
<path d="M199.83 32.9756H184.347" stroke="#4A3645" stroke-width="0.5" stroke-dasharray="10 10"/>
<path d="M123.519 92.6045H91.2621" stroke="#4A3645" stroke-width="0.5" stroke-dasharray="10 10"/>
<path d="M200.383 92.6045H129.141" stroke="#4A3645" stroke-width="0.5" stroke-dasharray="10 10"/>
<path d="M162.319 72.7896H114.395" stroke="#4A3645" stroke-width="0.5" stroke-dasharray="10 10"/>
<path d="M127.851 106.245L125.455 107.535" stroke="#4A3645" stroke-width="0.5"/>
<path d="M136.053 108.549L133.657 109.839" stroke="#4A3645" stroke-width="0.5"/>
<path d="M143.519 108.549L141.123 109.839" stroke="#4A3645" stroke-width="0.5"/>
<path d="M151.168 108.549L148.771 109.839" stroke="#4A3645" stroke-width="0.5"/>
<path d="M159.739 108.549L157.343 109.839" stroke="#4A3645" stroke-width="0.5"/>
<path d="M166.375 108.549L163.979 109.839" stroke="#4A3645" stroke-width="0.5"/>
<path d="M125.086 106.706L123.679 105.968" stroke="#4A3645" stroke-width="0.5"/>
</svg>
