<svg width="23" height="12" viewBox="0 0 23 12" fill="none" xmlns="http://www.w3.org/2000/svg">
<path d="M22.9677 0.866678C23.1513 1.33391 22.5526 2.40709 21.1715 4.08622C20.9799 4.31983 20.7204 4.63011 20.3931 5.01703C20.0738 5.38936 19.8542 5.65218 19.7345 5.80549C19.6147 5.9588 19.493 6.13949 19.3692 6.34756C19.2455 6.55562 19.1976 6.70893 19.2256 6.80749C19.2535 6.90605 19.3054 7.03198 19.3812 7.18529C19.4571 7.33861 19.5868 7.49557 19.7704 7.65618C19.954 7.81679 20.1815 8.01025 20.453 8.23657C20.4849 8.25117 20.5049 8.26577 20.5128 8.28038C21.6385 9.23675 22.4009 10.0435 22.8 10.7005C22.824 10.737 22.8499 10.7826 22.8779 10.8374C22.9058 10.8921 22.9338 10.9889 22.9617 11.1276C22.9896 11.2663 22.9876 11.3904 22.9557 11.4999C22.9238 11.6094 22.824 11.7098 22.6563 11.8011C22.4887 11.8923 22.2532 11.9379 21.9498 11.9379L18.8843 11.9817C18.6927 12.0183 18.4691 12 18.2137 11.927C17.9582 11.854 17.7507 11.7737 17.591 11.6861L17.3515 11.5547C17.112 11.4014 16.8326 11.1677 16.5133 10.8538C16.1939 10.5399 15.9205 10.257 15.693 10.0051C15.4655 9.75326 15.222 9.54154 14.9625 9.36998C14.7031 9.19842 14.4775 9.14184 14.2859 9.20024C14.262 9.20754 14.2301 9.22032 14.1901 9.23857C14.1502 9.25682 14.0824 9.30975 13.9866 9.39736C13.8908 9.48496 13.805 9.59265 13.7291 9.72041C13.6533 9.84817 13.5854 10.038 13.5255 10.2898C13.4657 10.5417 13.4397 10.8246 13.4477 11.1385C13.4477 11.248 13.4337 11.3484 13.4058 11.4397C13.3779 11.5309 13.3479 11.5985 13.316 11.6423L13.2681 11.697C13.1244 11.8357 12.9128 11.916 12.6334 11.9379H11.2563C10.6895 11.9671 10.1067 11.9069 9.508 11.7573C8.90926 11.6076 8.38436 11.4141 7.93331 11.1769C7.48226 10.9396 7.07112 10.6987 6.6999 10.4541C6.32869 10.2095 6.04728 9.99965 5.85568 9.82444L5.55631 9.56162C5.47648 9.48861 5.36671 9.37911 5.227 9.2331C5.0873 9.08708 4.8019 8.75491 4.3708 8.23657C3.93971 7.71823 3.5166 7.16704 3.10148 6.583C2.68635 5.99896 2.19738 5.22875 1.63456 4.27238C1.07175 3.31601 0.550841 2.32314 0.0718488 1.29376C0.0239496 1.17695 0 1.07839 0 0.998088C0 0.917782 0.0119748 0.859378 0.0359244 0.822875L0.0838237 0.75717C0.203572 0.61846 0.431093 0.549105 0.766388 0.549105L4.04748 0.527203C4.14328 0.541804 4.23509 0.565531 4.32291 0.598383C4.41072 0.631236 4.47459 0.662263 4.5145 0.691465L4.57438 0.724318C4.70211 0.804624 4.79791 0.921432 4.86177 1.07474C5.02144 1.43977 5.20505 1.81757 5.41261 2.20815C5.62018 2.59873 5.78383 2.89623 5.90358 3.10064L6.09518 3.41822C6.32669 3.85625 6.55022 4.23588 6.76577 4.5571C6.98131 4.87832 7.17491 5.12837 7.34654 5.30723C7.51818 5.48609 7.68383 5.62663 7.8435 5.72884C8.00316 5.83104 8.13888 5.88215 8.25064 5.88215C8.36241 5.88215 8.47018 5.8639 8.57396 5.82739C8.58993 5.82009 8.60989 5.80184 8.63384 5.77264C8.65779 5.74344 8.70568 5.66313 8.77753 5.53172C8.84938 5.40031 8.90327 5.22875 8.93919 5.01703C8.97512 4.80532 9.01304 4.50965 9.05295 4.13002C9.09287 3.75039 9.09287 3.29411 9.05295 2.76117C9.03699 2.46915 9.00106 2.20268 8.94518 1.96176C8.8893 1.72084 8.83342 1.55293 8.77753 1.45802L8.70568 1.32661C8.5061 1.07839 8.16682 0.921432 7.68783 0.855727C7.58404 0.841126 7.604 0.75352 7.7477 0.592908C7.87543 0.454198 8.02711 0.34469 8.20274 0.264384C8.62585 0.0745698 9.57985 -0.0130367 11.0647 0.0015644C11.7193 0.00886494 12.2582 0.0563184 12.6813 0.143925C12.841 0.180428 12.9747 0.229706 13.0825 0.291761C13.1902 0.353815 13.2721 0.441422 13.328 0.55458C13.3838 0.667738 13.4258 0.784547 13.4537 0.905006C13.4816 1.02546 13.4956 1.19155 13.4956 1.40327C13.4956 1.61498 13.4916 1.81575 13.4836 2.00556C13.4756 2.19538 13.4657 2.45272 13.4537 2.77759C13.4417 3.10247 13.4357 3.40362 13.4357 3.68104C13.4357 3.76134 13.4317 3.91465 13.4238 4.14097C13.4158 4.36729 13.4138 4.5425 13.4178 4.66661C13.4218 4.79072 13.4357 4.93855 13.4597 5.11012C13.4836 5.28168 13.5295 5.42404 13.5974 5.5372C13.6653 5.65036 13.7551 5.73979 13.8668 5.80549C13.9307 5.82009 13.9985 5.83469 14.0704 5.8493C14.1422 5.8639 14.246 5.82374 14.3817 5.72884C14.5175 5.63393 14.6691 5.508 14.8368 5.35103C15.0044 5.19407 15.212 4.9495 15.4595 4.61733C15.707 4.28516 15.9784 3.89275 16.2738 3.44012C16.7528 2.68086 17.1799 1.85955 17.5551 0.976186C17.587 0.903181 17.6269 0.839301 17.6748 0.784547C17.7227 0.729793 17.7666 0.691465 17.8065 0.669564L17.8544 0.636711L17.9143 0.609334L18.07 0.576482L18.3095 0.571006L21.7582 0.549105C22.0696 0.512602 22.325 0.521728 22.5246 0.576482C22.7242 0.631236 22.8479 0.691465 22.8958 0.75717L22.9677 0.866678Z" fill="white"/>
</svg>
