<svg width="17" height="20" viewBox="0 0 17 20" fill="none" xmlns="http://www.w3.org/2000/svg">
<path fill-rule="evenodd" clip-rule="evenodd" d="M4.94444 8.03062C4.94444 6.05942 6.53632 4.46145 8.5 4.46145C10.4637 4.46145 12.0556 6.05942 12.0556 8.03062C12.0556 10.0018 10.4637 11.5998 8.5 11.5998C6.53632 11.5998 4.94444 10.0018 4.94444 8.03062ZM8.5 6.24604C7.51816 6.24604 6.72222 7.04502 6.72222 8.03062C6.72222 9.01622 7.51816 9.8152 8.5 9.8152C9.48184 9.8152 10.2778 9.01622 10.2778 8.03062C10.2778 7.04502 9.48184 6.24604 8.5 6.24604Z" fill="#AA98A6"/>
<path fill-rule="evenodd" clip-rule="evenodd" d="M0.5 8.03062C0.5 3.59543 4.08172 0 8.5 0C12.9183 0 16.5 3.59543 16.5 8.03062C16.5 10.2847 15.4806 12.2603 14.0931 14.0688C12.9337 15.58 11.4498 17.0567 9.9674 18.5319C9.68699 18.8109 9.40664 19.0899 9.12854 19.3691L8.5 20L7.87146 19.3691C7.59337 19.0899 7.31301 18.8109 7.0326 18.5319C5.5502 17.0567 4.06626 15.58 2.90686 14.0688C1.51941 12.2603 0.5 10.2847 0.5 8.03062ZM8.5 1.78458C5.06356 1.78458 2.27778 4.58103 2.27778 8.03062C2.27778 9.71892 3.03615 11.3125 4.31536 12.9799C5.39547 14.3878 6.77799 15.7643 8.26202 17.242C8.34107 17.3207 8.42041 17.3997 8.5 17.479C8.57959 17.3997 8.65893 17.3207 8.73798 17.242C10.222 15.7643 11.6045 14.3878 12.6846 12.9799C13.9638 11.3125 14.7222 9.71892 14.7222 8.03062C14.7222 4.58103 11.9364 1.78458 8.5 1.78458Z" fill="#AA98A6"/>
</svg>
