<svg width="135" height="123" viewBox="0 0 135 123" fill="none" xmlns="http://www.w3.org/2000/svg">
<path d="M99.296 55.6988H91.0703V74.0039H91.9725V74.9646H107.522V49.4014H99.296V55.6988Z" stroke="#AA98A6"/>
<path d="M90.9642 49.5087V31.4971H72.3369V33.445V49.5087H90.9642Z" fill="white" stroke="#AA98A6"/>
<path d="M90.9648 49.4015H107.522V29.8955H99.1906V31.4965H90.9648V49.4015Z" fill="white" stroke="#AA98A6"/>
<path d="M33.0662 47.3735H14.5981V55.7256H16.4025V74.9914H24.5751V74.0575H33.0662V47.3735Z" fill="white" stroke="#AA98A6"/>
<path d="M41.4246 49.6952H33.0662V47.3737H14.5981V38.9682H18.1803V31.4434H41.4246V49.6952Z" fill="white" stroke="#AA98A6"/>
<path d="M107.416 75.018V29.9756H99.19V31.4966H72.3636V33.4979H59.7596V31.4966H18.0739V38.9948H14.5713V55.6188H16.4818V75.018H24.6279V74.0307H41.8488V75.018H57.8492V73.9774H66.8178V75.018H82.5528V73.9774H91.9726V75.018H107.416Z" stroke="#AA98A6"/>
<path d="M59.8124 49.6685V31.5234H41.3975V49.6685H59.8124Z" fill="white" stroke="#AA98A6"/>
<path d="M49.8087 55.7256H33.145V74.0574H41.8218V75.0447H49.8087V55.7256Z" fill="white" stroke="#AA98A6"/>
<path d="M66.2874 74.0036V55.645H49.8359V75.0442H57.8759V74.0036H66.2874Z" fill="white" stroke="#AA98A6"/>
<path d="M82.7914 55.6987H66.3135V74.0039H66.8176V75.0179H74.6984V61.4891H82.7914V55.6987Z" fill="#FC7773" stroke="#AA98A6"/>
<path d="M91.0707 55.6987H82.8185V61.5425H74.6724V75.0446H82.5797V74.0039H91.0707V55.6987Z" fill="white" stroke="#AA98A6"/>
<path d="M123.069 18.1567C129.19 25.5431 134 35.6557 134 54.2195C134 91.6537 103.461 122 65.7897 122C44.1485 122 28.8768 114.592 16.3809 98.972" stroke="#FFA048" stroke-width="0.5" stroke-linecap="round" stroke-linejoin="round" stroke-dasharray="5 5"/>
<path d="M109.571 13.6418H123.469M109.571 11.0391H111.501M111.115 6.20544L112.48 7.52002M121.359 6.20544L119.995 7.52002M121.539 11.0391H123.469M116.52 6.20544V1M116.52 1L114.204 3.2309M116.52 1L118.836 3.2309M113.818 11.0391C113.818 9.60163 115.028 8.43635 116.52 8.43635C118.012 8.43635 119.222 9.60163 119.222 11.0391" stroke="#FFA048" stroke-linecap="round" stroke-linejoin="round"/>
<path d="M14.8975 87.6867L0.999996 87.6867M14.8975 90.2894L12.9673 90.2894M13.3533 95.123L11.9884 93.8085M3.10936 95.123L4.47422 93.8085M2.9302 90.2894L0.999996 90.2894M10.651 90.2894C10.651 91.7269 9.44116 92.8921 7.94873 92.8921C6.4563 92.8921 5.24644 91.7269 5.24644 90.2894" stroke="#FFA048" stroke-linecap="round" stroke-linejoin="round"/>
<path d="M7.94808 95.123L7.94808 100.328M7.94808 100.328L10.2643 98.0976M7.94808 100.328L5.63184 98.0976" stroke="#FFA048" stroke-linecap="round" stroke-linejoin="round"/>
</svg>
