<svg width="30" height="30" viewBox="0 0 30 30" fill="none" xmlns="http://www.w3.org/2000/svg">
<circle cx="15" cy="15" r="15" fill="#FC7773"/>
<path fill-rule="evenodd" clip-rule="evenodd" d="M6 7H9.87375L10.4753 10.2727H24L20.9924 18.4545H11.9791L12.2799 20.0909H20.4366V21.7273H10.9486L8.5425 8.63636H6V7ZM11.6783 16.8182H19.8808L21.6853 11.9091H10.776L11.6783 16.8182Z" fill="white"/>
<path d="M11.6142 23.7727C11.6142 23.0949 12.1528 22.5455 12.8173 22.5455C13.4817 22.5455 14.0203 23.0949 14.0203 23.7727C14.0203 24.4505 13.4817 25 12.8173 25C12.1528 25 11.6142 24.4505 11.6142 23.7727Z" fill="white"/>
<path d="M17.2284 23.7727C17.2284 23.0949 17.7671 22.5455 18.4315 22.5455C19.0959 22.5455 19.6345 23.0949 19.6345 23.7727C19.6345 24.4505 19.0959 25 18.4315 25C17.7671 25 17.2284 24.4505 17.2284 23.7727Z" fill="white"/>
</svg>
