<svg width="30" height="30" viewBox="0 0 30 30" fill="none" xmlns="http://www.w3.org/2000/svg">
<circle cx="15" cy="15" r="15" fill="#FC7773"/>
<path d="M17.5455 13.4444V16.5556H16.0909V13.4444H17.5455Z" fill="white"/>
<path fill-rule="evenodd" clip-rule="evenodd" d="M7 8H23V13.0556H22.2727C21.2686 13.0556 20.4545 13.9261 20.4545 15C20.4545 16.0739 21.2686 16.9444 22.2727 16.9444H23V22H7V16.9444H7.72727C8.73143 16.9444 9.54545 16.0739 9.54545 15C9.54545 13.9261 8.73143 13.0556 7.72727 13.0556H7V8ZM17.5455 20.4444V18.1111H16.0909V20.4444H8.45455V18.4133C9.91199 18.0596 11 16.6657 11 15C11 13.3343 9.91199 11.9404 8.45455 11.5867V9.55556H16.0909V11.8889H17.5455V9.55556H21.5455V11.5867C20.088 11.9404 19 13.3343 19 15C19 16.6657 20.088 18.0596 21.5455 18.4133V20.4444H17.5455Z" fill="white"/>
</svg>
