<svg width="16" height="14" viewBox="0 0 16 14" fill="none" xmlns="http://www.w3.org/2000/svg">
<path d="M10.5455 5.44444V8.55556H9.09091V5.44444H10.5455Z" fill="#FC7773"/>
<path fill-rule="evenodd" clip-rule="evenodd" d="M0 0H16V5.05556H15.2727C14.2686 5.05556 13.4545 5.92611 13.4545 7C13.4545 8.07389 14.2686 8.94444 15.2727 8.94444H16V14H0V8.94444H0.727273C1.73143 8.94444 2.54545 8.07389 2.54545 7C2.54545 5.92611 1.73143 5.05556 0.727273 5.05556H0V0ZM10.5455 12.4444V10.1111H9.09091V12.4444H1.45455V10.4133C2.91199 10.0596 4 8.66568 4 7C4 5.33432 2.91199 3.94041 1.45455 3.58673V1.55556H9.09091V3.88889H10.5455V1.55556H14.5455V3.58673C13.088 3.94041 12 5.33432 12 7C12 8.66568 13.088 10.0596 14.5455 10.4133V12.4444H10.5455Z" fill="#FC7773"/>
</svg>
