<svg width="18" height="18" viewBox="0 0 18 18" fill="none" xmlns="http://www.w3.org/2000/svg">
<path fill-rule="evenodd" clip-rule="evenodd" d="M0 0H3.87375L4.47528 3.27273H18L14.9924 11.4545H5.97909L6.27985 13.0909H14.4366V14.7273H4.9486L2.5425 1.63636H0V0ZM5.67833 9.81818H13.8808L15.6853 4.90909H4.77604L5.67833 9.81818Z" fill="#FC7773"/>
<path d="M5.61422 16.7727C5.61422 16.0949 6.15285 15.5455 6.81727 15.5455C7.4817 15.5455 8.02032 16.0949 8.02032 16.7727C8.02032 17.4505 7.4817 18 6.81727 18C6.15285 18 5.61422 17.4505 5.61422 16.7727Z" fill="#FC7773"/>
<path d="M11.2284 16.7727C11.2284 16.0949 11.7671 15.5455 12.4315 15.5455C13.0959 15.5455 13.6345 16.0949 13.6345 16.7727C13.6345 17.4505 13.0959 18 12.4315 18C11.7671 18 11.2284 17.4505 11.2284 16.7727Z" fill="#FC7773"/>
</svg>
