<svg width="20" height="22" viewBox="0 0 20 22" fill="none" xmlns="http://www.w3.org/2000/svg">
<path fill-rule="evenodd" clip-rule="evenodd" d="M5 5C5 2.23858 7.23858 0 10 0C12.7614 0 15 2.23858 15 5C15 7.41896 13.2822 9.43671 11 9.89998V18H9V9.89998C6.71776 9.43671 5 7.41896 5 5ZM10 2C8.34315 2 7 3.34315 7 5C7 6.65685 8.34315 8 10 8C11.6569 8 13 6.65685 13 5C13 3.34315 11.6569 2 10 2Z" fill="#FC7773"/>
<path d="M7.19214 14.1766L6.21567 14.3922C4.81544 14.7015 3.70129 15.1644 2.96356 15.6826C2.20805 16.2134 2 16.6824 2 17C2 17.2269 2.0993 17.5183 2.43166 17.8676C2.76892 18.222 3.30422 18.5866 4.04218 18.9146C5.51558 19.5694 7.62114 20 10 20C12.3789 20 14.4844 19.5694 15.9578 18.9146C16.6958 18.5866 17.2311 18.222 17.5683 17.8676C17.9007 17.5183 18 17.2269 18 17C18 16.6824 17.792 16.2134 17.0364 15.6826C16.2987 15.1644 15.1846 14.7015 13.7843 14.3922L12.8079 14.1766L13.2392 12.2236L14.2157 12.4393C15.7789 12.7846 17.1647 13.3285 18.1861 14.0461C19.1898 14.7512 20 15.747 20 17C20 17.8777 19.5956 18.6385 19.0171 19.2463C18.4435 19.8491 17.6608 20.3463 16.7701 20.7422C14.9861 21.5351 12.5917 22 10 22C7.40829 22 5.01386 21.5351 3.2299 20.7422C2.33918 20.3463 1.55645 19.8491 0.982869 19.2463C0.40438 18.6385 0 17.8777 0 17C0 15.747 0.810232 14.7512 1.81386 14.0461C2.83528 13.3285 4.22113 12.7846 5.78433 12.4393L6.76079 12.2236L7.19214 14.1766Z" fill="#FC7773"/>
</svg>
