<svg width="22" height="22" viewBox="0 0 22 22" fill="none" xmlns="http://www.w3.org/2000/svg">
<path d="M13.8 18.1999C13.8 19.5254 12.7255 20.5999 11.4 20.5999C10.0745 20.5999 3.4 20.5999 3.4 20.5999C2.07452 20.5999 1 19.5254 1 18.1999C1 16.8744 1 11.5254 1 10.1999C1 8.87442 2.07452 7.7999 3.4 7.7999L11.4 7.7999C12.7255 7.7999 13.8 8.87442 13.8 10.1999V18.1999Z" stroke="#FC7773" stroke-width="2" stroke-linecap="round" stroke-linejoin="round"/>
<path d="M20.2 11.7999C20.2 13.1254 19.1255 14.1999 17.8 14.1999C16.4745 14.1999 9.8 14.1999 9.8 14.1999C8.47452 14.1999 7.4 13.1254 7.4 11.7999C7.4 10.4744 7.4 5.12539 7.4 3.7999C7.4 2.47442 8.47452 1.3999 9.8 1.3999L17.8 1.3999C19.1255 1.3999 20.2 2.47442 20.2 3.7999V11.7999Z" stroke="#FC7773" stroke-width="2" stroke-linecap="round" stroke-linejoin="round"/>
</svg>
