<svg width="22" height="20" viewBox="0 0 22 20" fill="none" xmlns="http://www.w3.org/2000/svg">
<path d="M1 12.7727V9.86112C1 8.44673 2.11929 7.30014 3.5 7.30014M1 12.7727C1 14.1871 2.11929 15.3337 3.5 15.3337H18.5C19.8807 15.3337 21 14.1871 21 12.7727M1 12.7727V16.6904C1 17.6333 1.74619 18.3977 2.66667 18.3977H4.33333C5.25381 18.3977 6 17.6333 6 16.6904V15.3337M21 12.7727V9.86112C21 8.44673 19.8807 7.30014 18.5 7.30014H3.5M21 12.7727V16.6904C21 17.6333 20.2538 18.3977 19.3333 18.3977H17.6667C16.7462 18.3977 16 17.6333 16 16.6904V15.3337M3.5 7.30014L4.83674 2.16511C5.0313 1.41773 5.69205 0.897705 6.44713 0.897705H15.6321C16.3495 0.897705 16.9864 1.36795 17.2132 2.06512L18.9167 7.30014M3.91667 11.1416H6.83333M15.1667 11.1416H18.0833" stroke="#FC7773" stroke-width="1.5" stroke-linecap="round" stroke-linejoin="round"/>
</svg>
