<svg width="20" height="23" viewBox="0 0 20 23" fill="none" xmlns="http://www.w3.org/2000/svg">
<path d="M15.4129 8.18067L8.5 15.5516L4.58712 11.3795L6.06143 10.0585L8.5 12.6587L13.9386 6.85976L15.4129 8.18067Z" fill="#FC7773"/>
<path fill-rule="evenodd" clip-rule="evenodd" d="M10 0.0166016L12.4142 2.37627H20V11.9559C20 15.4322 17.9054 18.5825 14.6552 19.9943L10 22.0166L5.34475 19.9943C2.0946 18.5825 0 15.4322 0 11.9559V2.37627H7.58579L10 0.0166016ZM10 2.78113L8.41421 4.33109H2V11.9559C2 14.6597 3.62914 17.1099 6.15703 18.208L10 19.8774L13.843 18.208C16.3709 17.1099 18 14.6597 18 11.9559V4.33109H11.5858L10 2.78113Z" fill="#FC7773"/>
</svg>
