<svg xmlns="http://www.w3.org/2000/svg" version="1.1" xmlns:xlink="http://www.w3.org/1999/xlink" xmlns:svgjs="http://svgjs.dev/svgjs" width="1000" height="1000"><g clip-path="url(#SvgjsClipPath1182)"><rect width="1000" height="1000" fill="#fbbf51"></rect><g transform="matrix(33.333333333333336,0,0,33.333333333333336,150,333.3333333333333)"><svg xmlns="http://www.w3.org/2000/svg" version="1.1" xmlns:xlink="http://www.w3.org/1999/xlink" xmlns:svgjs="http://svgjs.dev/svgjs" width="21" height="10"><svg width="21" height="10" viewBox="0 0 21 10" fill="none" xmlns="http://www.w3.org/2000/svg">
<path d="M21 10H18.235C17.4522 10 16.8271 9.68441 16.3332 8.79752L14.3159 5.17529H17.0809C17.8637 5.17529 18.4887 5.49088 18.9827 6.37777L21 10Z" fill="#2D2527"></path>
<path d="M16.6136 10H13.8485H13.8479C13.0651 10 12.4401 9.68441 11.9461 8.79752L9.92882 5.17529H13.9264L16.6136 10Z" fill="#2D2527"></path>
<path d="M4.33579 5.17529H7.17352C7.81155 5.17529 8.3334 5.7163 8.3334 6.37777V10H5.49567C4.78494 10 4.33579 9.53368 4.33579 8.79752V5.17529Z" fill="#2D2527"></path>
<path d="M0 10H2.83773C3.54846 10 3.99762 9.53368 3.99762 8.79752V5.17529H0V10Z" fill="#2D2527"></path>
<path d="M4.33579 4.82471H7.17352C7.81155 4.82471 8.3334 4.2837 8.3334 3.62223V0H5.49567C4.78494 0 4.33579 0.466321 4.33579 1.20248V4.82471Z" fill="#2D2527"></path>
<path d="M19.339 0H16.574C15.7912 0 15.1662 0.315591 14.6722 1.20248L12.6549 4.82471H15.4199C16.2027 4.82471 16.8278 4.50912 17.3217 3.62223L19.339 0Z" fill="#2D2527"></path>
<path d="M0 0H2.83773C3.54781 0 3.99762 0.465648 3.99762 1.20248V4.82471H0V0Z" fill="#2D2527"></path>
<path d="M14.9533 0H12.1882H12.1876C11.4048 0 10.7797 0.315591 10.2858 1.20248L8.2685 4.82471H12.2661L14.9533 0Z" fill="#2D2527"></path>
</svg></svg></g></g><defs><clipPath id="SvgjsClipPath1182"><rect width="1000" height="1000" x="0" y="0" rx="500" ry="500"></rect></clipPath></defs></svg>