<svg width="1376" height="624" viewBox="0 0 1376 624" fill="none" xmlns="http://www.w3.org/2000/svg">
<path opacity="0.5" fill-rule="evenodd" clip-rule="evenodd" d="M369 45.7366L369 6.3041L419.636 35.0713C432.032 42.113 436.446 51.0302 436.446 62.194L436.446 101.628L385.81 72.8606C373.412 65.8176 369 56.9017 369 45.7366Z" fill="#FBBF51"/>
<path opacity="0.5" fill-rule="evenodd" clip-rule="evenodd" d="M377.157 -47.4683L377.157 -82.1311L421.67 -56.8425C432.566 -50.6513 436.446 -42.8129 436.446 -32.9994L436.446 1.66473L391.934 -23.624C381.035 -29.8151 377.157 -37.6536 377.157 -47.467" fill="#FBBF51"/>
<path opacity="0.5" fill-rule="evenodd" clip-rule="evenodd" d="M436.187 140.62L436.187 105.957L480.699 131.246C491.595 137.437 495.476 145.275 495.476 155.089L495.476 189.753L450.963 164.464C440.064 158.273 436.187 150.435 436.187 140.621" fill="#FBBF51"/>
<path fill-rule="evenodd" clip-rule="evenodd" d="M537.116 -17.2782L537.116 -73.6155L464.77 -32.5143C447.061 -22.4537 440.755 -9.71258 440.755 6.23696L440.755 62.5742L513.099 21.4744C530.811 11.4124 537.116 -1.32735 537.116 -17.2769" fill="#FBBF51"/>
<path opacity="0.5" fill-rule="evenodd" clip-rule="evenodd" d="M957 556.377L957 507.647L1019.99 543.197C1035.4 551.899 1040.89 562.918 1040.89 576.714L1040.89 625.446L977.909 589.896C962.488 581.192 957 570.174 957 556.377Z" fill="#FBBF51"/>
<path opacity="0.8" fill-rule="evenodd" clip-rule="evenodd" d="M967.146 441.196L967.146 398.361L1022.51 429.612C1036.07 437.263 1040.9 446.949 1040.9 459.077L1040.9 501.914L985.527 470.662C971.97 463.012 967.146 453.325 967.146 441.198" fill="#FBBF51"/>
<path opacity="0.5" fill-rule="evenodd" clip-rule="evenodd" d="M1166.12 478.504L1166.12 408.884L1076.13 459.676C1054.1 472.109 1046.25 487.854 1046.25 507.564L1046.25 577.184L1136.24 526.394C1158.27 513.96 1166.12 498.216 1166.12 478.506" fill="#FBBF51"/>
<path opacity="0.5" fill-rule="evenodd" clip-rule="evenodd" d="M1207 349.33L1207 310.154L1257.64 338.734C1270.03 345.73 1274.45 354.589 1274.45 365.68L1274.45 404.857L1223.81 376.277C1211.41 369.28 1207 360.422 1207 349.33Z" fill="#FBBF51"/>
<path opacity="0.5" fill-rule="evenodd" clip-rule="evenodd" d="M1215.16 256.732L1215.16 222.295L1259.67 247.419C1270.57 253.57 1274.45 261.357 1274.45 271.107L1274.45 305.545L1229.93 280.421C1219.04 274.27 1215.16 266.483 1215.16 256.733" fill="#FBBF51"/>
<path opacity="0.5" fill-rule="evenodd" clip-rule="evenodd" d="M1274.19 443.595L1274.19 409.158L1318.7 434.282C1329.6 440.433 1333.48 448.22 1333.48 457.97L1333.48 492.408L1288.96 467.284C1278.06 461.133 1274.19 453.346 1274.19 443.596" fill="#FBBF51"/>
<path opacity="0.8" fill-rule="evenodd" clip-rule="evenodd" d="M1375.12 286.726L1375.12 230.755L1302.77 271.589C1285.06 281.584 1278.76 294.242 1278.76 310.088L1278.76 366.058L1351.1 325.226C1368.81 315.229 1375.12 302.572 1375.12 286.727" fill="#FBBF51"/>
<path opacity="0.8" fill-rule="evenodd" clip-rule="evenodd" d="M-4.69825e-06 399.574L-8.01297e-06 325.471L95.7817 379.531C119.228 392.764 127.578 409.522 127.578 430.501L127.578 504.606L31.7964 450.546C8.3449 437.311 -3.75971e-06 420.555 -4.69825e-06 399.574Z" fill="#FBBF51"/>
<path opacity="0.5" fill-rule="evenodd" clip-rule="evenodd" d="M15.4294 224.42L15.4294 159.28L99.6275 206.804C120.238 218.438 127.578 233.168 127.578 251.61L127.578 316.752L43.3801 269.229C22.7645 257.594 15.4294 242.864 15.4294 224.422" fill="#FBBF51"/>
<path opacity="0.5" fill-rule="evenodd" clip-rule="evenodd" d="M318 281.154L318 175.283L181.155 252.522C147.656 271.428 135.729 295.372 135.729 325.345L135.729 431.216L272.572 353.979C306.075 335.07 318 311.129 318 281.157" fill="#FBBF51"/>
<path opacity="0.5" fill-rule="evenodd" clip-rule="evenodd" d="M318 542.542L318 514.762L353.674 535.028C362.406 539.989 365.516 546.272 365.516 554.136L365.516 581.918L329.842 561.651C321.108 556.689 318 550.408 318 542.542Z" fill="#FBBF51"/>
<path opacity="0.8" fill-rule="evenodd" clip-rule="evenodd" d="M323.747 476.879L323.747 452.459L355.106 470.275C362.782 474.637 365.516 480.159 365.516 487.072L365.516 511.493L334.157 493.677C326.478 489.316 323.747 483.794 323.747 476.88" fill="#FBBF51"/>
<path opacity="0.5" fill-rule="evenodd" clip-rule="evenodd" d="M436.438 498.148L436.438 458.458L385.47 487.414C372.994 494.502 368.552 503.478 368.552 514.715L368.552 554.404L419.518 525.449C431.996 518.361 436.438 509.386 436.438 498.149" fill="#FBBF51"/>
</svg>
