<svg width="175" height="36" viewBox="0 0 175 36" fill="none" xmlns="http://www.w3.org/2000/svg">
<path d="M160.853 22.8117L153.357 30.089H168.376L160.853 22.8117ZM146.706 34.5694V29.8301L160.853 16.0006L175 29.8301V34.5694H146.706Z" fill="#FC7773"/>
<path d="M130.459 35.0095C124.354 35.0095 118.111 32.4457 118.111 25.8158C118.111 19.2119 124.381 16.6221 130.459 16.6221C136.511 16.6221 142.699 19.2637 142.699 25.8158C142.699 32.4198 136.593 35.0095 130.459 35.0095ZM130.432 30.3738C133.54 30.3738 137.165 29.5192 137.165 25.7899C137.165 22.1124 133.485 21.206 130.432 21.206C127.352 21.206 123.672 22.0606 123.672 25.7899C123.645 29.5451 127.297 30.3738 130.432 30.3738Z" fill="#FC7773"/>
<path d="M47.9478 30.089H35.8177V21.491H47.9478V30.089ZM53.2904 34.5694V17.0106H30.4478V34.5694H53.2904Z" fill="#FC7773"/>
<path d="M21.2072 25.6346C22.8699 26.3856 23.9057 27.551 23.9057 29.4416C23.9057 33.4558 20.0895 34.5694 16.4096 34.5694H0V17.0106H15.6464C19.2718 17.0106 23.4424 17.684 23.4424 21.8794C23.4151 23.3297 22.7609 24.6505 21.2072 25.6346ZM5.34267 20.7399V24.3656H15.4011C16.655 24.3656 17.8816 23.9512 17.8816 22.5269C17.8816 21.1025 16.6277 20.7658 15.4011 20.7658H5.34267V20.7399ZM15.919 27.1367H5.34267V30.866H15.919C17.2547 30.866 18.3995 30.4775 18.3995 28.9754C18.3995 27.551 17.1456 27.1367 15.919 27.1367Z" fill="#FC7773"/>
<path fill-rule="evenodd" clip-rule="evenodd" d="M89.7075 35.5794V29.6488L96.3314 25.79L89.7075 21.9312V16.0006L101.047 23.0189L112.387 16.0006V21.9312L105.763 25.79L112.387 29.6488V35.5794L101.047 28.5611L89.7075 35.5794Z" fill="#FC7773"/>
<path d="M72.0445 35.0095C65.8022 35.0095 59.8599 32.4198 59.8599 25.8158C59.8599 19.2637 65.884 16.6221 72.0445 16.6221C77.3871 16.6221 83.7656 18.7457 83.9837 24.1842H78.4775C78.2594 21.7757 74.2524 21.2578 72.0445 21.2578C68.8007 21.2578 65.3934 22.2678 65.3934 25.8417C65.3934 29.4674 68.7189 30.4256 72.0445 30.4256C74.2797 30.4256 78.2594 29.9854 78.4775 27.5251H83.9837C83.7656 33.0672 77.5234 35.0095 72.0445 35.0095Z" fill="#FC7773"/>
<path d="M96.7679 1.91214C96.0592 1.91214 95.5413 1.75675 95.2414 1.47187C94.9143 1.187 94.7507 0.772633 94.7507 0.202881H96.1409C96.1409 0.487757 96.1955 0.694938 96.3045 0.824427C96.4135 0.928019 96.5771 1.00572 96.7679 1.00572C96.9859 1.00572 97.1495 0.953916 97.2585 0.824427C97.3676 0.720836 97.4221 0.513655 97.4221 0.202881H98.785C98.785 0.746735 98.6215 1.187 98.2943 1.47187C97.9672 1.75675 97.4766 1.91214 96.7679 1.91214ZM93.8512 2.53369H95.405V6.36656L98.2126 2.53369H99.6573V8.49019H98.1036V4.65731L95.2959 8.49019H93.8512V2.53369ZM86.6004 2.53369H88.1542V6.36656L90.9618 2.53369H92.4065V8.49019H90.8528V4.65731L88.0451 8.49019H86.6004V2.53369ZM79.3769 2.53369H80.9307V4.83859H83.602V2.53369H85.1557V8.49019H83.602V6.05579H80.9307V8.49019H79.3769V2.53369ZM74.9338 7.48017C75.1246 7.48017 75.3154 7.45427 75.479 7.40248C75.6698 7.35068 75.8333 7.27299 75.9696 7.1694C76.1059 7.06581 76.2149 6.93632 76.324 6.78093C76.4057 6.62554 76.4603 6.44426 76.4603 6.23707V5.9522H74.8792C74.5794 5.9522 74.3341 6.02989 74.1705 6.15938C74.007 6.28887 73.9252 6.47016 73.9252 6.70324C73.9252 6.93632 74.007 7.1435 74.1978 7.27299C74.3341 7.40248 74.6067 7.48017 74.9338 7.48017ZM74.4431 8.64558C74.116 8.64558 73.7889 8.59378 73.5436 8.51609C73.271 8.4125 73.0529 8.28301 72.8894 8.12762C72.6986 7.94633 72.5623 7.76505 72.4805 7.53196C72.3987 7.29888 72.3442 7.03991 72.3442 6.78093C72.3442 5.58963 73.1074 4.96808 74.6067 4.96808H76.4875V4.6832C76.4875 4.29474 76.4057 4.00986 76.2149 3.85448C76.0241 3.69909 75.7243 3.6214 75.3427 3.6214C74.9883 3.6214 74.743 3.67319 74.5794 3.80268C74.4159 3.90627 74.3341 4.06166 74.3068 4.24294H72.7531C72.7804 3.98397 72.8349 3.75088 72.9711 3.5178C73.0802 3.28472 73.271 3.10344 73.4891 2.94805C73.7071 2.79267 73.9797 2.66318 74.3068 2.55959C74.6339 2.45599 75.0155 2.4301 75.4244 2.4301C75.8333 2.4301 76.1877 2.48189 76.5148 2.55959C76.8419 2.63728 77.1145 2.76677 77.3598 2.94805C77.6051 3.12934 77.7687 3.36242 77.905 3.67319C78.0413 3.95807 78.0958 4.32064 78.0958 4.735V7.01401C78.0958 7.32478 78.0958 7.60966 78.123 7.84274C78.123 8.07582 78.1503 8.30891 78.1776 8.54199H76.7056C76.6783 8.3866 76.651 8.25711 76.651 8.15352C76.651 8.07583 76.651 7.94634 76.651 7.76505C76.4875 7.99813 76.2149 8.20531 75.8606 8.3866C75.4244 8.54198 74.9883 8.64558 74.4431 8.64558ZM65.4205 2.53369H71.1176V8.49019H69.5638V3.75089H67.0015V8.49019H65.4478V2.53369H65.4205ZM56.8886 2.53369H58.7422L60.4867 5.77092L62.2313 2.53369H64.0031V8.49019H62.5039V4.60551L60.9774 7.29889H59.9143L58.3878 4.60551V8.49019H56.8886V2.53369ZM52.609 7.37658C53.0452 7.37658 53.4268 7.22119 53.7266 6.93632C54.0265 6.62554 54.1627 6.18528 54.1627 5.58963V5.35655C54.1627 4.81269 54.0265 4.39833 53.7266 4.08756C53.4268 3.80268 53.0724 3.64729 52.609 3.64729C52.1456 3.64729 51.7913 3.80268 51.4914 4.08756C51.1916 4.37243 51.0553 4.7868 51.0553 5.35655V5.58963C51.0553 6.21117 51.1916 6.65144 51.4914 6.93632C51.7913 7.22119 52.1729 7.37658 52.609 7.37658ZM52.609 8.64558C52.1729 8.64558 51.764 8.59378 51.3824 8.46429C51.0008 8.3348 50.6737 8.15352 50.3738 7.89454C50.1012 7.63556 49.8559 7.32479 49.6924 6.93632C49.5288 6.54785 49.447 6.10758 49.447 5.58963V5.35655C49.447 4.86449 49.5288 4.45012 49.6924 4.06166C49.8559 3.69909 50.074 3.38831 50.3738 3.12933C50.6464 2.87035 51.0008 2.68907 51.3824 2.55959C51.764 2.4301 52.1729 2.3783 52.609 2.3783C53.0452 2.3783 53.4268 2.4301 53.8084 2.55959C54.19 2.68907 54.5171 2.87035 54.817 3.12933C55.1168 3.38831 55.3349 3.67319 55.4984 4.06166C55.662 4.42423 55.7437 4.86449 55.7437 5.35655V5.58963C55.7437 6.10758 55.662 6.54785 55.4984 6.93632C55.3349 7.32479 55.1168 7.63556 54.817 7.89454C54.5171 8.15352 54.19 8.3348 53.8084 8.46429C53.454 8.56788 53.0452 8.64558 52.609 8.64558ZM43.1776 2.53369H44.7313V4.89039H45.331L47.2663 2.53369H49.0109L46.6394 5.35655L49.1199 8.49019H47.2391L45.331 6.02989H44.7313V8.49019H43.1776V2.53369ZM36.0085 7.48017C36.1994 7.48017 36.3902 7.45427 36.5537 7.40248C36.7445 7.35068 36.9081 7.27299 37.0444 7.1694C37.1807 7.06581 37.2897 6.93632 37.3987 6.78093C37.4805 6.62554 37.535 6.44426 37.535 6.23707V5.9522H35.954C35.6542 5.9522 35.4089 6.02989 35.2453 6.15938C35.0818 6.28887 35 6.47016 35 6.70324C35 6.93632 35.0818 7.1435 35.2726 7.27299C35.4089 7.40248 35.6814 7.48017 36.0085 7.48017ZM35.5179 8.64558C35.1908 8.64558 34.8637 8.59378 34.6184 8.51609C34.3458 8.4125 34.1277 8.28301 33.9642 8.12762C33.7733 7.94633 33.6371 7.76505 33.5553 7.53196C33.4735 7.29888 33.419 7.03991 33.419 6.78093C33.419 5.58963 34.1822 4.96808 35.6815 4.96808H37.5623V4.6832C37.5623 4.29474 37.4805 4.00986 37.2897 3.85448C37.0989 3.69909 36.799 3.6214 36.4174 3.6214C36.0631 3.6214 35.8178 3.67319 35.6542 3.80268C35.4907 3.90627 35.4089 4.06166 35.3816 4.24294H33.8279C33.8551 3.98397 33.9097 3.75088 34.0459 3.5178C34.155 3.28472 34.3458 3.10344 34.5639 2.94805C34.7819 2.79267 35.0545 2.66318 35.3816 2.55959C35.7087 2.45599 36.0903 2.4301 36.4992 2.4301C36.9081 2.4301 37.2625 2.48189 37.5896 2.55959C37.9167 2.63728 38.1892 2.76677 38.4346 2.94805C38.6799 3.12934 38.8434 3.36242 38.9797 3.67319C39.116 3.95807 39.1705 4.32064 39.1705 4.735V7.01401C39.1705 7.32478 39.1706 7.60966 39.1978 7.84274C39.1978 8.07582 39.2251 8.30891 39.2523 8.54199H37.7804C37.7531 8.3866 37.7258 8.25711 37.7258 8.15352C37.7258 8.07583 37.7258 7.94634 37.7258 7.76505C37.5623 7.99813 37.2897 8.20531 36.9353 8.3866C36.4992 8.54198 36.0631 8.64558 35.5179 8.64558ZM26.5226 2.53369H32.2196V8.49019H30.6659V3.75089H28.1036V8.49019H26.5498V2.53369H26.5226ZM19.3808 2.53369H25.0779V8.49019H23.5241V3.75089H20.9618V8.49019H19.4081V2.53369H19.3808ZM13.5748 10.8987C13.4657 10.8987 13.3294 10.8987 13.2204 10.8728V9.60379C13.3294 9.62969 13.4657 9.62969 13.5748 9.62969C13.8201 9.62969 13.9837 9.552 14.1199 9.37071C14.2562 9.18943 14.3925 8.90455 14.5561 8.49019L11.8847 2.50779H13.6293L15.3466 6.62554L16.9003 2.50779H18.5086L16.0825 8.49019C15.919 8.90455 15.7554 9.26713 15.5919 9.5779C15.4283 9.88867 15.2648 10.1218 15.074 10.3289C14.8832 10.5102 14.6651 10.6656 14.4198 10.7433C14.229 10.8469 13.9291 10.8987 13.5748 10.8987ZM8.58645 7.37658C8.99532 7.37658 9.3497 7.22119 9.62228 6.93632C9.89487 6.65144 10.0312 6.18528 10.0312 5.58963V5.35655C10.0312 4.7868 9.89487 4.37243 9.62228 4.08756C9.3497 3.80268 8.99532 3.67319 8.58645 3.67319C8.12305 3.67319 7.7687 3.80268 7.46885 4.03576C7.16901 4.26884 7.03272 4.65731 7.03272 5.12347V5.79681C7.03272 6.34067 7.16901 6.72914 7.46885 6.98812C7.74144 7.24709 8.12305 7.37658 8.58645 7.37658ZM5.45171 2.53369H6.92368V3.41421C7.08723 3.15523 7.33255 2.89626 7.65965 2.71497C7.98675 2.50779 8.42291 2.4042 8.94082 2.4042C9.78584 2.4042 10.44 2.66317 10.9034 3.15523C11.3668 3.64729 11.6121 4.39833 11.6121 5.38245V5.61553C11.6121 6.65144 11.3668 7.40248 10.9034 7.92043C10.4128 8.43839 9.78584 8.67148 8.94082 8.67148C8.50468 8.67148 8.12304 8.59378 7.79594 8.4125C7.46884 8.23121 7.19625 7.99813 7.00544 7.71325V10.7951H5.45171V2.53369ZM0 2.53369H4.49766V3.77678H1.55372V8.49019H0V2.53369Z" fill="#FC7773"/>
</svg>
