<svg width="51" height="41" viewBox="0 0 51 41" fill="none" xmlns="http://www.w3.org/2000/svg">
<path d="M0 12C0 5.37257 5.37258 0 12 0H51V28.8C51 35.4274 45.6274 40.8 39 40.8H0V12Z" fill="#FBBF51"/>
<path d="M36 25H33.235C32.4522 25 31.8271 24.6844 31.3332 23.7975L29.3159 20.1753H32.0809C32.8637 20.1753 33.4887 20.4909 33.9827 21.3778L36 25Z" fill="#2D2527"/>
<path d="M31.6136 25H28.8485H28.8479C28.0651 25 27.4401 24.6844 26.9461 23.7975L24.9288 20.1753H28.9264L31.6136 25Z" fill="#2D2527"/>
<path d="M19.3358 20.1753H22.1735C22.8116 20.1753 23.3334 20.7163 23.3334 21.3778V25H20.4957C19.7849 25 19.3358 24.5337 19.3358 23.7975V20.1753Z" fill="#2D2527"/>
<path d="M15 25H17.8377C18.5485 25 18.9976 24.5337 18.9976 23.7975V20.1753H15V25Z" fill="#2D2527"/>
<path d="M19.3358 19.8247H22.1735C22.8116 19.8247 23.3334 19.2837 23.3334 18.6222V15H20.4957C19.7849 15 19.3358 15.4663 19.3358 16.2025V19.8247Z" fill="#2D2527"/>
<path d="M34.339 15H31.574C30.7912 15 30.1662 15.3156 29.6722 16.2025L27.6549 19.8247H30.4199C31.2027 19.8247 31.8278 19.5091 32.3217 18.6222L34.339 15Z" fill="#2D2527"/>
<path d="M15 15H17.8377C18.5478 15 18.9976 15.4656 18.9976 16.2025V19.8247H15V15Z" fill="#2D2527"/>
<path d="M29.9533 15H27.1882H27.1876C26.4048 15 25.7797 15.3156 25.2858 16.2025L23.2685 19.8247H27.2661L29.9533 15Z" fill="#2D2527"/>
</svg>
