<svg width="195" height="30" viewBox="0 0 195 30" fill="none" xmlns="http://www.w3.org/2000/svg">
<g clip-path="url(#clip0_524_406)">
<path d="M27.2056 5.77734C27.9138 6.69049 28.5133 7.68254 28.992 8.73359L15.4119 18.7174L9.73633 15.1692V10.9006L15.4119 14.4487L27.2056 5.77734Z" fill="#4A3645"/>
<path d="M3.94421 14.868C3.94421 14.6765 3.94889 14.4862 3.95826 14.297L0.518732 14.1289C0.507025 14.3741 0.500004 14.6216 0.500004 14.8715C0.498541 16.8235 0.883523 18.7565 1.63288 20.5596C2.38222 22.3629 3.48119 24.0008 4.86673 25.3795L7.30647 22.9475C6.23993 21.8881 5.39384 20.6289 4.81683 19.2424C4.23982 17.8558 3.94327 16.3692 3.94421 14.868Z" fill="#4A3645"/>
<path d="M15.4084 3.4336C15.6004 3.4336 15.7912 3.44061 15.9808 3.44994L16.1529 0.0185002C15.9064 0.00682465 15.6581 0.00098759 15.4084 0.00098759C13.4502 -0.00139394 11.511 0.381999 9.70184 1.12915C7.8927 1.87631 6.24938 2.97251 4.86621 4.35481L7.30595 6.78799C8.36823 5.72397 9.63093 4.87985 11.0215 4.30419C12.412 3.72852 13.9028 3.43265 15.4084 3.4336Z" fill="#4A3645"/>
<path d="M15.4098 26.3014C15.2178 26.3014 15.0269 26.3014 14.8362 26.2862L14.6641 29.7165C14.9115 29.729 15.1601 29.7352 15.4098 29.7352C17.3671 29.7372 19.3055 29.3536 21.1136 28.6062C22.9218 27.8589 24.5641 26.7625 25.9462 25.3802L23.5111 22.9482C22.4486 24.0117 21.1861 24.8553 19.7958 25.4308C18.4056 26.0062 16.915 26.3022 15.4098 26.3014Z" fill="#4A3645"/>
<path d="M21.8708 5.42915L24.7695 3.29836C22.1201 1.15877 18.8129 -0.00593927 15.4038 2.2776e-05V3.4338C17.7123 3.43094 19.9672 4.12671 21.8708 5.42915Z" fill="#4A3645"/>
<path d="M30.3169 14.8675C30.3188 13.9742 30.2404 13.0825 30.0827 12.2031L26.8739 14.5616C26.8739 14.6632 26.8739 14.7648 26.8739 14.8675C26.8747 16.465 26.5389 18.0449 25.8884 19.5048C25.2377 20.9646 24.2868 22.2718 23.0972 23.3416L25.4117 25.8928C26.9582 24.5003 28.1941 22.7993 29.0391 20.9C29.8842 19.0007 30.3195 16.9454 30.3169 14.8675Z" fill="#4A3645"/>
<path d="M15.409 26.3017C13.807 26.3022 12.2228 25.9672 10.7588 25.3184C9.29491 24.6696 7.98394 23.7213 6.91081 22.5352L4.354 24.8422C5.75002 26.3849 7.45556 27.6176 9.36003 28.4606C11.2645 29.3035 13.3253 29.7379 15.409 29.7354V26.3017Z" fill="#4A3645"/>
<path d="M7.72091 6.39388L5.4076 3.84277C3.8606 5.23494 2.62428 6.93585 1.77883 8.83519C0.933389 10.7345 0.497695 12.7899 0.500009 14.868H3.94422C3.94351 13.2705 4.27934 11.6906 4.92993 10.2308C5.58054 8.77102 6.5314 7.4638 7.72091 6.39388Z" fill="#4A3645"/>
<path d="M86.5356 8.50206L90.8013 5.40332H76.5249V24.024H90.8013V20.9253H80.5985V16.1556H89.3019V13.0569H80.5985V8.50206H86.5356Z" fill="#4A3645"/>
<path d="M66.9173 12.6572H61.9609V8.50073H69.8712L74.1343 5.39258H57.8896V24.0133H66.393C71.1604 24.0133 73.8965 21.8828 73.8965 18.1671C73.8965 14.6125 71.4183 12.6572 66.9173 12.6572ZM66.2097 20.9136H61.9609V15.754H66.2097C68.7882 15.754 69.9972 16.6187 69.9972 18.3339C69.9972 20.0489 68.7108 20.9136 66.2097 20.9136Z" fill="#4A3645"/>
<path d="M101.295 5.40137H93.5234V24.022H97.5965V18.7471H101.295C106.253 18.7471 109.32 16.1747 109.32 12.0643C109.32 7.95405 106.253 5.40137 101.295 5.40137ZM101.209 15.646H97.5965V8.50247H101.209C103.817 8.50247 105.256 9.77175 105.256 12.0757C105.256 14.3796 103.817 15.646 101.209 15.646Z" fill="#4A3645"/>
<path d="M51.7779 19.6274C50.7257 20.1892 49.5468 20.4801 48.3504 20.4732C44.7694 20.4732 42.1715 17.9524 42.1715 14.4812C42.1715 11.01 44.7694 8.48367 48.3504 8.48367C49.6418 8.46204 50.9064 8.84816 51.9595 9.58568L54.8087 7.51668L54.616 7.38169C52.9539 5.94085 50.7332 5.17773 48.1912 5.17773C45.4341 5.17773 42.9341 6.09237 41.1491 7.75636C40.2466 8.61313 39.5328 9.64413 39.0522 10.785C38.5716 11.926 38.3345 13.1522 38.3558 14.3875C38.3367 15.6353 38.5727 16.8741 39.0498 18.03C39.5268 19.186 40.2351 20.2351 41.1324 21.1151C42.9257 22.8452 45.4202 23.7984 48.1577 23.7984C51.0181 23.7984 53.5182 22.8149 55.211 21.0242L52.6606 19.1509L51.7779 19.6274Z" fill="#4A3645"/>
<path d="M125.47 12.6572H120.516V8.50073H131.163V5.39258H116.442V24.0133H124.934C129.701 24.0133 132.438 21.8828 132.438 18.1671C132.449 14.6125 129.971 12.6572 125.47 12.6572ZM124.763 20.9136H120.516V15.754H124.763C127.341 15.754 128.549 16.6187 128.549 18.3339C128.549 20.0489 127.274 20.9136 124.763 20.9136Z" fill="#4A3645"/>
<path d="M178.748 23.9869H174.618V5.36621H178.748V13.187H180.995L187.065 5.36621H191.745L184.545 14.2243L192.905 23.9869H187.426L181.282 16.6636H178.748V23.9869Z" fill="#4A3645"/>
<path d="M147.441 20.4481H138.706L137.225 24.064H132.83L141.023 5.44336H145.417L153.477 24.064H148.922L147.441 20.4481ZM146.073 17.0742L143.099 9.8423L140.109 17.0742H146.073Z" fill="#4A3645"/>
<path d="M159.036 5.44336V13.219H167.581V5.44336H171.839V24.064H167.581V16.7269H159.036V24.064H154.778V5.44336H159.036Z" fill="#4A3645"/>
</g>
<defs>
<clipPath id="clip0_524_406">
<rect width="194" height="30" fill="white" transform="translate(0.5)"/>
</clipPath>
</defs>
</svg>
